<svg id="Layer_1" data-name="Layer 1" xmlns="http://www.w3.org/2000/svg" viewBox="0 0 246.4 233.58"><defs><style>.cls-1{fill:#fff;}</style></defs><title>Pheasant</title><g id="SOokds"><path class="cls-1" d="M301.82,422.48c0,1.88-.1,3.76,0,5.63a18.26,18.26,0,0,0,3.28,8.83,38.27,38.27,0,0,1,2.15,4,2.62,2.62,0,0,1,.24,1.34,5,5,0,0,0,1.63,4.14c2.2,2.24,3,5.14,3.52,8.11a4.1,4.1,0,0,1-.72,3.2,39.38,39.38,0,0,1-2.9,3.58,4.72,4.72,0,0,1-1.79,1,1.36,1.36,0,0,1-1.83-1,3,3,0,0,1,.28-2.21c1.09-2.44,1-2.93-1-4.71a7.83,7.83,0,0,0-1.08-.85,9.2,9.2,0,0,1-3.43-3.77,3.17,3.17,0,0,0-3.24-1.86c-2.38,0-4.76-.09-7.13-0.14h-0.66c-1.07,0-1.56.42-1.5,1.49a12.84,12.84,0,0,0,.52,2.81,2.37,2.37,0,0,1-.34,2.57,2.72,2.72,0,0,1-2.75.78,4.89,4.89,0,0,1-3.16-2.29,9.81,9.81,0,0,1-.71-9.41c1-2.45,1.94-4.91,2.91-7.36A50.58,50.58,0,0,0,287,426.8c0.26-1.43.81-2.8,1.14-4.22q0.92-3.88,1.74-7.78a16,16,0,0,0,.38-2.85c0-1.51-.84-2.12-2.17-1.41a42.29,42.29,0,0,0-4,2.59c-0.66.45-1.26,1-1.89,1.48a8.18,8.18,0,0,0-2.57,3.27,7.58,7.58,0,0,0-.41,2.09c-0.09.75-.06,1.51-0.13,2.27a27.93,27.93,0,0,0,0,5.93,25.78,25.78,0,0,1,.08,3.1c0,0.76-.13,1.52-0.13,2.28a9.71,9.71,0,0,1-1.71,5.35,26.28,26.28,0,0,0-2.94,6,4.7,4.7,0,0,1-4.59,3,9.67,9.67,0,0,1-2.37-.3,3.72,3.72,0,0,1-2.71-2.86,1.66,1.66,0,0,1,.92-2c0.64-.37,1.34-0.63,2-1a3.25,3.25,0,0,0,1.94-3.24,3.65,3.65,0,0,0-.48-1.59,22.18,22.18,0,0,1-2.41-6.12,3.21,3.21,0,0,0-2.9-2.65,25.92,25.92,0,0,1-4.24-1.25,5.69,5.69,0,0,1-3-2.58l-0.13-.2c-1-1.66-2.35-1.81-3.68-.36a6.27,6.27,0,0,0-.88,1.41,2,2,0,0,1-1.85,1.39,1.91,1.91,0,0,1-1.83-1.49,5.55,5.55,0,0,1-.28-2.33,16.3,16.3,0,0,1,1-3.33,5.18,5.18,0,0,1,2.79-2.76c1.08-.52,2.17-1,3.24-1.57a4.93,4.93,0,0,1,2.43-.52,23,23,0,0,0,3.35-.06c3.35-.4,5.78-2.39,7.91-4.81,0.9-1,1.71-2.11,2.58-3.16a38.54,38.54,0,0,1,4.91-4.39,4.47,4.47,0,0,0,.72-0.71,0.7,0.7,0,0,0-.48-1.2,3.87,3.87,0,0,0-.9,0c-0.94.05-1.88,0.15-2.81,0.17q-2.85.07-5.69,0.07c-2.7,0-5.4,0-8.09,0q-5.52-.08-11-0.23a5,5,0,0,1-4.69-4.56c0-1-.18-2-0.29-3a2.31,2.31,0,0,1,.69-2c1.72-1.64,3.46-3.26,5.18-4.89a4.09,4.09,0,0,0,.68-0.75,0.9,0.9,0,0,0-.74-1.49,13.86,13.86,0,0,0-2.52,0,5.7,5.7,0,0,1-5.47-2.44c-0.39-.51-0.79-1-1.18-1.51a2.72,2.72,0,0,1-.28-3.1,7.52,7.52,0,0,1,3.65-3.66,7.12,7.12,0,0,0,1.33-.69,0.94,0.94,0,0,0,.38-0.73,1,1,0,0,0-.6-0.56c-0.5-.19-1-0.26-1.56-0.42a5,5,0,0,1-3.71-5.25,3.74,3.74,0,0,1,1.71-3.21c1.83-1.18,3.72-2.26,5.59-3.38,0.15-.09.33-0.14,0.49-0.22a1.12,1.12,0,0,0,.92-1,1.16,1.16,0,0,0-1.05-.93c-1.16-.37-2.35-0.66-3.49-1.09a5.91,5.91,0,0,1-4-5.83,5,5,0,0,1,.77-2.53c1.45-2.2,3.41-3.58,6.23-3.23a8.11,8.11,0,0,0,1.67.06,1,1,0,0,0,.75-0.43,1,1,0,0,0-.28-0.83,13.76,13.76,0,0,0-1.57-1.2,8.42,8.42,0,0,1-3-3.36,3.6,3.6,0,0,1,.08-3.66,14.81,14.81,0,0,1,1.75-2.25,3.68,3.68,0,0,1,3.45-1.08,34,34,0,0,0,3.64.37,1.27,1.27,0,0,0,1-.38,1.22,1.22,0,0,0-.24-1.06,8.49,8.49,0,0,0-1.52-1.43,9,9,0,0,1-2.39-2.73,4.21,4.21,0,0,1,1.19-5.83,25.79,25.79,0,0,1,2.78-1.66,2.74,2.74,0,0,1,2.92.1c1.31,0.85,2.58,1.75,3.85,2.65s2.36,1.64,3.5,2.53q5.36,4.2,10.67,8.45c0.9,0.72,1.75,1.52,2.61,2.3,2.54,2.34,5,4.73,7.62,7a74.19,74.19,0,0,1,7,7.47c1,1.21,2,2.46,3,3.64,1.78,2,3.61,3.9,5.42,5.85q1.43,1.53,2.89,3a3.61,3.61,0,0,0,2.45,1.13c1.24,0.08,1.85-.71,1.29-1.83a13.41,13.41,0,0,0-1.8-2.82c-2-2.35-4.14-4.66-6.31-6.9-1.84-1.89-3.86-3.6-5.72-5.47a56.44,56.44,0,0,1-7.29-8.66,8.07,8.07,0,0,0-.74-1,27,27,0,0,1-3.4-4.77,23.37,23.37,0,0,0-2.43-3.12,65.89,65.89,0,0,0-5.93-6.43c-1.49-1.38-2.83-2.94-4.3-4.34s-2.92-2.67-4.45-3.91a8.41,8.41,0,0,0-2-1c-0.84-.36-1.74-0.62-2.54-1a3.05,3.05,0,0,1-1.69-3c0-1.1,0-2.2,0-3.3a4.59,4.59,0,0,1,3.75-4.67,6.32,6.32,0,0,1,3.81.28c1.64,0.63,3.31,1.17,5,1.69a1.36,1.36,0,0,0,1.14-.11,1.33,1.33,0,0,0,.05-1.14,15,15,0,0,0-1-2c-0.4-.69-0.8-1.39-1.26-2-2-2.79-.59-6.6,1.75-8.22a1.79,1.79,0,0,1,2.07-.2c1.12,0.69,2.2,1.44,3.27,2.22,0.64,0.47,1.21,1,1.83,1.55a0.88,0.88,0,0,0,1.14.21,0.91,0.91,0,0,0,.15-1.16c-0.51-1.37-1-2.75-1.57-4.09a5.77,5.77,0,0,1,1.22-6.64,20.63,20.63,0,0,1,1.92-1.72,2.29,2.29,0,0,1,3.59.29c0.82,0.88,1.55,1.83,2.33,2.74,1.07,1.24,2.16,2.46,3.25,3.69a0.88,0.88,0,0,0,.36.31,1.4,1.4,0,0,0,.87.06,0.87,0.87,0,0,0,.19-0.78,17.72,17.72,0,0,0-.74-1.9q-1.35-3.2-2.72-6.4a2.2,2.2,0,0,1,0-1.91A15.49,15.49,0,0,1,291.8,270a1.58,1.58,0,0,1,2.53.1c1,1,1.87,2,2.78,3,1.23,1.34,2.44,2.7,3.67,4a2.11,2.11,0,0,0,.56.44,0.78,0.78,0,0,0,1.18-.5,1.27,1.27,0,0,0,.07-0.35,33.06,33.06,0,0,0-.26-7.23,10.13,10.13,0,0,1,0-3.75,2.77,2.77,0,0,1,1.15-1.9c1.32-.9,2.66-1.78,4-2.61a5.16,5.16,0,0,1,1.57-.58,1.78,1.78,0,0,1,2.25,1.19c0.12,0.28.2,0.57,0.33,0.84a12.4,12.4,0,0,0,.93,1.74,1.37,1.37,0,0,0,1,.62,2.09,2.09,0,0,0,.78-0.85,0.74,0.74,0,0,0,.1-0.28,17.37,17.37,0,0,1,2.38-4.82,5.17,5.17,0,0,1,2.83-2.2c0.8-.26,1.58-0.57,2.39-0.8a2.47,2.47,0,0,1,2.92,1,9.23,9.23,0,0,1,1.25,2.37,23.54,23.54,0,0,1,1.17,6,16.24,16.24,0,0,1-.84,4.7q-0.56,2.33-1.18,4.65c-0.21.77-.47,1.53-0.75,2.27a17,17,0,0,0-1.4,6.16,2.07,2.07,0,0,0,.88,2.09c0.82,0.44,1.51,0,2.24-.38a7.08,7.08,0,0,1,2.12-.74c2.05-.33,4.11-0.6,6.18-0.83,1.59-.18,3.19-0.23,4.78-0.38,1.43-.13,2.86-0.39,4.29-0.46,3.67-.16,7.33-0.44,10.88,1,4,1.65,8.08,3.15,12.13,4.7a4.07,4.07,0,0,0,1.33.27,0.83,0.83,0,0,0,.64-0.41,1.07,1.07,0,0,0-.15-0.76,1.4,1.4,0,0,0-.49-0.43,87.74,87.74,0,0,0-8.8-5.6,9.88,9.88,0,0,1-1.14-.78c-2.33-1.65-4.68-3.28-7-4.95-1.82-1.31-3.63-2.62-5.39-4s-3.77-3-5.59-4.63a18.4,18.4,0,0,1-4.13-5.1,5.06,5.06,0,0,1-.69-3.1,10.76,10.76,0,0,0,0-1.62,1.89,1.89,0,0,1,1-1.79,8.55,8.55,0,0,1,3.41-1.06,22.69,22.69,0,0,1,8.31.64,55.57,55.57,0,0,1,6,1.5,27.56,27.56,0,0,1,10.71,6.83,84.89,84.89,0,0,0,7.72,6.91,36.54,36.54,0,0,1,5.76,5.91c0.23,0.3.46,0.61,0.72,0.88a0.87,0.87,0,0,0,1.12.31,0.81,0.81,0,0,0,.26-1.07,11.29,11.29,0,0,0-3.13-5.24l-6-5.26a49.31,49.31,0,0,1-7.6-8.62,5,5,0,0,1-.55-1c-1.08-2.64-2.18-5.28-3.2-8a7.53,7.53,0,0,1-.47-2.4,2.6,2.6,0,0,1,2.69-2.76,32.33,32.33,0,0,1,4.43.13,16.78,16.78,0,0,1,10,4.55,4.5,4.5,0,0,1,1.06,1.64,43.64,43.64,0,0,0,6.51,11.42c1.15,1.54,2.4,3,3.64,4.46a9.33,9.33,0,0,0,1.4,1.3c0.66,0.51,1.26.56,1.57,0.2s0.2-.88-0.34-1.51c-1-1.13-1.94-2.24-2.9-3.36a41.29,41.29,0,0,1-5.49-8.56c-1-2-1.86-4-2.78-6-0.13-.29-0.2-0.61-0.34-0.9a4.3,4.3,0,0,1,.52-4.78c0.45-.61.87-1.25,1.32-1.86a2,2,0,0,1,2.06-.78,21.59,21.59,0,0,1,8.79,3.8,6.15,6.15,0,0,1,2.07,2.67c0.88,1.88,1.74,3.78,2.63,5.66,0.36,0.76.75,1.5,1.16,2.23a2,2,0,0,0,.54.63,0.48,0.48,0,0,0,.82-0.42,3.31,3.31,0,0,0-.29-1.09c-0.61-1.43-1.29-2.84-1.86-4.29a11.33,11.33,0,0,1-.73-2.58,2.79,2.79,0,0,1,3.27-3.19,10.33,10.33,0,0,1,7.32,4.1c1.93,2.59,3.89,5.18,5.83,7.76l0,0a0.87,0.87,0,0,0,.94.58,0.78,0.78,0,0,0,.33-1.09c-0.36-1.35-.74-2.69-1.18-4-0.27-.81-0.68-1.58-1-2.39a1.85,1.85,0,0,1,.55-2.18,3.1,3.1,0,0,1,3.1-.82,14.73,14.73,0,0,1,2.41.9,23.9,23.9,0,0,1,5.4,3.54c1.86,1.76,3.32,3.72,3.52,6.46s0.67,5.76,1,8.63a1.85,1.85,0,0,1-1.18,2.17c-0.78.39-1.57,0.78-2.32,1.24a7.47,7.47,0,0,0-2.9,3.65c-0.95,2.28-1.19,2.48-3.67,2.4a16.62,16.62,0,0,0-6.95,1.63,7.75,7.75,0,0,1-.87.4,11.86,11.86,0,0,0-5,3.34A37.55,37.55,0,0,0,399,285a25.39,25.39,0,0,0-4.35,10.3c-0.28,1.94-.66,3.86-0.94,5.8a4.5,4.5,0,0,0,.09,1.6c0.68,3,1.35,6,2.12,9a17.2,17.2,0,0,0,2.49,6.07,6.24,6.24,0,0,1,.59,1.11,5.88,5.88,0,0,0,4.15,3.24,3.24,3.24,0,0,0,1.48,0,1.67,1.67,0,0,0,.87-2.82,5.77,5.77,0,0,0-1.49-1,29.24,29.24,0,0,1-2.62-1.32,5,5,0,0,1-1.55-1.61,8.31,8.31,0,0,1-1.07-4.91,5.86,5.86,0,0,1,1.38-3.39c0.57-.67,1.14-1.34,1.69-2a1.76,1.76,0,0,0-.31-2.77c-0.4-.32-0.88-0.55-1.29-0.88a31.17,31.17,0,0,1-2.62-2.27,2.71,2.71,0,0,1-.64-2.79,18.12,18.12,0,0,1,4-7.3,2.39,2.39,0,0,1,2.76-.7,4.56,4.56,0,0,0,1.82.21,1.42,1.42,0,0,0,1.33-1.87,5.89,5.89,0,0,0-.55-1.39,5.12,5.12,0,0,1-.24-4.25,3.89,3.89,0,0,1,1.18-1.68,18.06,18.06,0,0,1,5.41-3,3.55,3.55,0,0,1,4,1,10.08,10.08,0,0,1,2.32,3.81,18.5,18.5,0,0,1,.73,9.11,3.4,3.4,0,0,1-2.25,2.67,1.06,1.06,0,0,1-1.55-.82c-0.09-.35-0.1-0.71-0.19-1.06a1,1,0,0,0-1.71-.63l-0.14.11c-1.83,1.57-1.18,5.21,1.12,5.94,4.8,1.53,7.71-1.61,8.28-4.8a10.8,10.8,0,0,0-.46-5.88c-0.86-2.32-1.47-4.73-2.17-7.11a5.37,5.37,0,0,1,.12-3.36c0.19-.55.35-1.11,0.56-1.65a8.56,8.56,0,0,1,3.51-4.43,20,20,0,0,1,5.9-2.87,10.44,10.44,0,0,1,2.48-.29,28.47,28.47,0,0,1,6.72.77,11.24,11.24,0,0,1,4.14,2,27.76,27.76,0,0,1,5.09,4.54c0.92,1.15,1.8,2.34,2.6,3.58,1.22,1.89-.3,4.2-1.8,4.67a3,3,0,0,1-1.61-.1,15.65,15.65,0,0,1-1.74-.8,5.6,5.6,0,0,0-5.37.58,3.2,3.2,0,0,0-1.41,2,9.43,9.43,0,0,0-.2,4.39c0.61,2.94,1.23,5.87,1.84,8.8a115.55,115.55,0,0,1,1.81,13.24,11.27,11.27,0,0,1-2.95,8.8,38.34,38.34,0,0,1-7.22,6.55c-1.23.85-2.32,1.89-3.5,2.82s-2.24,1.68-3.35,2.52a7.12,7.12,0,0,0-.87.73,1,1,0,0,0-.26,1.31,1.5,1.5,0,0,0,1.05.62,15.91,15.91,0,0,0,3.44-.37c4.92-1.26,9.29-3.72,13.57-6.37,3.82-2.37,7.69-4.66,11.54-7a8.92,8.92,0,0,1,1.16-.62,55.28,55.28,0,0,0,10.15-6.12,15.13,15.13,0,0,1,8.79-2.78,4.09,4.09,0,0,1,4.19,4.88,29.73,29.73,0,0,0-.14,3.35c0,0.74.08,1.48,0.09,2.22a4.69,4.69,0,0,1-2.08,4.1,33.35,33.35,0,0,1-3.34,2c-2.75,1.48-5.48,3-8.28,4.34-1.9.93-3.89,1.67-5.87,2.43a27.15,27.15,0,0,1-2.72.74,12.17,12.17,0,0,0-1.38.39q-7.1,2.84-14.18,5.71c-1.3.53-2.54,1.2-3.85,1.67-3.45,1.21-6.93,2.34-10.39,3.52-1.57.53-3.14,1.08-4.69,1.66-3.19,1.18-6.41,2.28-9.54,3.6a91.51,91.51,0,0,1-13,3.87c-3,.77-6.15,1.19-9.23,1.8-2,.39-4,0.73-6,1.27a18.31,18.31,0,0,0-6.23,3.53,9,9,0,0,0-3,3,7.46,7.46,0,0,0-.77,2.24A38.64,38.64,0,0,1,373,374a11,11,0,0,0-.32,2.55c-0.08,1-.11,1.92-0.15,2.87a9.49,9.49,0,0,0,0,1.5,2.11,2.11,0,0,0,2.21,2.08,8.22,8.22,0,0,0,4.88-1.44c4.12-2.53,8.15-5.21,12.26-7.76,2.44-1.51,4.81-3.13,7.37-4.49,3.23-1.71,6.32-3.69,9.39-5.67a43.75,43.75,0,0,0,4.27-3.3,8.76,8.76,0,0,1,6.11-2c0.62,0,1.24.09,1.85,0.14a20.73,20.73,0,0,0,9.71-1.68,39.38,39.38,0,0,1,9.19-2.68,8.33,8.33,0,0,0,1.75-.41,9.61,9.61,0,0,1,3.76-.6c2.8,0.07,5.6.06,8.39,0.19,1.55,0.07,3.09.42,4.65,0.53s3.23,0.11,4.85.14a37.17,37.17,0,0,1,11.65,2.61,41.37,41.37,0,0,1,8.55,4.43c2.12,1.36,2.28,2.75.59,4.59a6.71,6.71,0,0,1-4.27,2.16,46.52,46.52,0,0,1-7.9.39,12.4,12.4,0,0,0-6.2,1.54,1.47,1.47,0,0,0-.31,2.46c0.75,0.78,1.55,1.51,2.3,2.28,1.09,1.12,2.19,2.22,3.23,3.38q4.44,5,8.84,10a11,11,0,0,1,1.11,1.49,3.08,3.08,0,0,1,.09,3.46,2.87,2.87,0,0,1-3.11,1.35c-3-.51-6.05-0.94-9-1.68-4.61-1.15-4.6-1.23-8.67-4.12-1.22-.87-2.31-1.91-3.48-2.84a9.22,9.22,0,0,0-1.78-1.18,1.28,1.28,0,0,0-1.14.12,1.14,1.14,0,0,0-.16,1.08,10.16,10.16,0,0,0,1.51,2.41c2,2.14,4,4.27,6.13,6.25a34.17,34.17,0,0,0,4.46,3.33,7.48,7.48,0,0,1,2.9,3.33c1.15,2.66,2.33,5.31,3.48,8a3.67,3.67,0,0,1,.28,1,1.57,1.57,0,0,1-1.8,1.83,7.47,7.47,0,0,1-1.51-.39,44.29,44.29,0,0,1-13.92-7.37,24.8,24.8,0,0,0-5.81-3.34c-0.76-.34-1.32-0.28-1.58.14a1.25,1.25,0,0,0,.5,1.58c0.56,0.46,1.17.84,1.74,1.28,1.28,1,2.59,2,3.8,3.11a16.67,16.67,0,0,1,3.88,5.71c0.86,1.91,1.8,3.8,2.82,5.63,0.57,1,1.4,1.89,2,2.88a16.91,16.91,0,0,1,1.39,2.56,1.73,1.73,0,0,1-.58,2.1,1.78,1.78,0,0,1-2.13.21c-2.61-1.39-5.19-2.84-7.82-4.19-2.29-1.17-4-3.09-5.85-4.72-2.08-1.78-4.06-3.67-6.1-5.5a3,3,0,0,0-1-.61,0.71,0.71,0,0,0-.95.92,3.07,3.07,0,0,0,.54,1q1.65,2.1,3.34,4.17a13.71,13.71,0,0,1,2.54,4.79,30.48,30.48,0,0,1,1.45,8.18,4.83,4.83,0,0,0,.17,1.24,21.18,21.18,0,0,1,.57,5.29,5.58,5.58,0,0,1-.19,1.72,2.25,2.25,0,0,1-3.65,1.15,6.84,6.84,0,0,1-1.14-1.22c-1.26-1.68-2.56-3.33-3.71-5.07-1-1.48-1.77-3.09-2.67-4.62-0.76-1.29-1.55-2.57-2.32-3.85-0.55-.9-1.09-1.82-1.66-2.7s-1.32-2-2-3a1.91,1.91,0,0,0-.69-0.65,1.26,1.26,0,0,0-1-.12,1,1,0,0,0-.3.92,7.56,7.56,0,0,0,.91,2.07,8.75,8.75,0,0,1,1.36,5c0.11,4.36.34,8.71,0.55,13.06a5.24,5.24,0,0,1-.77,3.1,13.54,13.54,0,0,0-2,5.76,9,9,0,0,1-1,2.88,2.27,2.27,0,0,1-3.57,1.07,10.9,10.9,0,0,1-2.16-1.85c-0.62-.65-1.12-1.41-1.67-2.11a17,17,0,0,1-3.53-7.65c-0.41-2.34-.69-4.71-1-7.06-0.05-.38-0.1-0.75-0.19-1.12a1.17,1.17,0,0,0-.95-1,1.28,1.28,0,0,0-1.38.52,2.78,2.78,0,0,0-.44,1.09,8.67,8.67,0,0,0-.1,1.85,66.34,66.34,0,0,0,1.18,10.42,4.93,4.93,0,0,1,.06,1.79,59.5,59.5,0,0,1-1.17,6.72c-0.56,2.07-1.35,4.08-1.91,6.17a14.68,14.68,0,0,1-1.53,3.24,8.63,8.63,0,0,1-3.53,3.08,1.34,1.34,0,0,1-1.78-.42,9.78,9.78,0,0,1-2.25-3.72,16.09,16.09,0,0,0-2-4.14,3.68,3.68,0,0,1-.57-1.8c-0.21-3.51-.36-7-0.54-10.54q-0.06-1.2-.19-2.39a1.93,1.93,0,0,0-.26-0.79,0.54,0.54,0,0,0-1,.07,2.47,2.47,0,0,0-.16.87q-0.23,5.3-.44,10.6a6.43,6.43,0,0,1-.94,3.18,12.81,12.81,0,0,0-1,2.17,19.69,19.69,0,0,1-3.28,5.89c-0.51.61-.91,1.31-1.38,2a5.51,5.51,0,0,1-2.42,2,1.61,1.61,0,0,1-2.24-.64,10,10,0,0,1-.81-1.33,35.08,35.08,0,0,1-3.37-10.4,11.4,11.4,0,0,1-.11-2.09,24.47,24.47,0,0,0-.58-6.85c-0.14-.58-0.22-1.27-1-1.37a1.21,1.21,0,0,0-1.23,1.17,30.15,30.15,0,0,0-.77,3.44c-0.3,1.91-.49,3.85-0.8,5.76a3.34,3.34,0,0,1-.71,1.68c-1.7,1.82-2.72,4.09-4.15,6.09-1.31,1.84-2.57,3.72-3.92,5.53-1.83,2.45-4.48,2.19-5.77-.6a16.34,16.34,0,0,1-1.41-6.52,72.84,72.84,0,0,1,.69-10.7,31.14,31.14,0,0,0,.08-4.31,1.41,1.41,0,0,0-1-1.48,1.52,1.52,0,0,0-1.74.77,5.42,5.42,0,0,0-.73,1.56c-0.56,2.15-1.05,4.31-1.59,6.46-0.38,1.53-.79,3.06-1.22,4.58a5.27,5.27,0,0,1-2.73,3.35,13.72,13.72,0,0,0-5.21,4.92,36.14,36.14,0,0,1-2.64,3.41,5.11,5.11,0,0,1-1.43,1.07,1.46,1.46,0,0,1-2-.52,1,1,0,0,1-.15-0.26c-0.68-2.13-1.55-4.2-1.48-6.51a27.49,27.49,0,0,1,1.58-8.21c0.45-1.3.75-2.65,1.09-4a2.7,2.7,0,0,0,0-1.07,0.53,0.53,0,0,0-1-.29,3.87,3.87,0,0,0-.62,1c-1,2.16-1.85,4.34-2.86,6.47a16.47,16.47,0,0,1-1.52,2.21c-0.31.44-.58,0.91-0.91,1.33a5.32,5.32,0,0,1-1.28,1.38,49.24,49.24,0,0,1-4.49,2.28A1.92,1.92,0,0,1,326.8,465a8.55,8.55,0,0,1-.61-2.84,29.24,29.24,0,0,1,.12-4.61,17.53,17.53,0,0,1,.87-3.47,33.42,33.42,0,0,1,1.42-3.56,34.55,34.55,0,0,1,2.09-4,42.26,42.26,0,0,0,3.89-6.74A3,3,0,0,1,335,439c1.76-2.23,2.59-4.88,3.54-7.5a60,60,0,0,1,2.52-5.82c1.07-2.19,2.33-4.29,3.39-6.49a18.93,18.93,0,0,0,1.75-7.55c0.12-3,.18-6,0.33-8.93,0.06-1.15.28-2.3,0.44-3.44,0.06-.46.18-0.91,0.2-1.36a1,1,0,0,0-1.56-1,5.54,5.54,0,0,0-1.07.66,99.09,99.09,0,0,1-8.91,5.76,47.47,47.47,0,0,0-4.53,3.14,18.44,18.44,0,0,1-10.91,4.15c-2.15.1-4.3,0.42-6.45,0.47a15.65,15.65,0,0,1-3.71-.52c-1.07-.24-2.08-0.71-3.13-1a8.28,8.28,0,0,0-1.75-.36,1.56,1.56,0,0,0-1.88,1.29,27,27,0,0,0-.76,3.75c-0.32,2.76-.54,5.53-0.79,8.3h0.11Zm60.09,18.19c0.24,0,.48,0,0.72,0a53.64,53.64,0,0,0,15.07-1.22c5.38-1,10.69-2.37,15.95-3.93a12.25,12.25,0,0,0,1.65-.69c1.19-.56,2.37-1.15,3.56-1.69,2-.9,4-1.75,6-2.65a7.42,7.42,0,0,0,1.1-.72c1.72-1.2,3.42-2.44,5.18-3.58a14.66,14.66,0,0,0,2.95-2.52c0.95-1.05,1.91-2.1,2.94-3.08,2.72-2.6,5.48-5.15,8.2-7.74a78.52,78.52,0,0,0,10.44-12.1c1.08-1.56,2.2-3.09,3.28-4.65,1.21-1.76,2.51-3.47,3.57-5.32,1.25-2.18,2.34-4.46,3.38-6.75,1-2.11,1.78-4.28,2.64-6.43a31.67,31.67,0,0,0,1.17-3.14,67.35,67.35,0,0,1,4.12-10.93c0.84-1.75.45-2.9-1.27-3.82a10.06,10.06,0,0,0-5.12-1c-2.63.07-5.27,0.17-7.9,0.28a7.37,7.37,0,0,0-1.84.21,14.65,14.65,0,0,0-3.11,1.2,1.57,1.57,0,0,0,.09,2.83,5.83,5.83,0,0,0,1.21.51,15.56,15.56,0,0,0,5.32.72c2.19-.05,4.38.33,6.58,0a1.3,1.3,0,0,1,1.36,2c-0.25.59-.59,1.13-0.89,1.7a3,3,0,0,1-3.26,1.63c-2.11-.22-4.2-0.51-6.31-0.68-1.63-.14-3.27-0.17-4.91-0.2a5.71,5.71,0,0,0-1.59.25,1.72,1.72,0,0,0-1.42,1.64,1.62,1.62,0,0,0,1.33,1.64,9.3,9.3,0,0,0,2.41.43c2.72,0,5.44,0,8.15,0a5.61,5.61,0,0,1,1.48.11,1.64,1.64,0,0,1,1.11,2.44c-0.2.43-.49,0.82-0.74,1.23a3.18,3.18,0,0,1-3.85,1.59c-2.77-.63-5.57-1.1-8.37-1.56a8.77,8.77,0,0,0-2.43,0,1.19,1.19,0,0,0-1,1.06,1.41,1.41,0,0,0,.52,1.45,3.79,3.79,0,0,0,.66.41,30.93,30.93,0,0,0,7.77,2.61,15.2,15.2,0,0,1,2.2.58,1.25,1.25,0,0,1,.83,1.9,9.87,9.87,0,0,1-.75,1.5,2.24,2.24,0,0,1-3.35,1c-1.78-.9-3.51-1.91-5.29-2.82a31.55,31.55,0,0,0-3.33-1.48,3.89,3.89,0,0,0-1.65-.16,1.64,1.64,0,0,0-1.54,2.25,3.86,3.86,0,0,0,1.1,1.66,23.65,23.65,0,0,0,5.39,3.76,20.52,20.52,0,0,1,2.94,1.73,1.36,1.36,0,0,1,.41,2.13,8.73,8.73,0,0,1-1.25,1.44,1.47,1.47,0,0,1-1.73.28,8.38,8.38,0,0,1-1.9-1.12c-2.25-2-4.9-3.48-6.84-5.81a3.49,3.49,0,0,0-.64-0.55,3.6,3.6,0,0,0-3-.57,1.51,1.51,0,0,0-1.3,1.45,3.22,3.22,0,0,0,.5,2.12,27.21,27.21,0,0,0,5.31,5.83c1.22,1.09,2.58,2,3.86,3a3.85,3.85,0,0,1,.62.64,1.5,1.5,0,0,1,.16,1.74,6.82,6.82,0,0,1-.51.81c-1.46,2-2.69,2.19-4.6.58a16,16,0,0,1-3.32-3.77,27.76,27.76,0,0,0-2.13-3,5.25,5.25,0,0,0-4.19-2.12,1.59,1.59,0,0,0-1.78,1.83,3.84,3.84,0,0,0,.89,2.31c1.17,1.52,2.32,3.06,3.57,4.51s2.53,2.71,3.8,4.06c0.16,0.17.36,0.32,0.51,0.51a1.25,1.25,0,0,1,.08,1.79,12.62,12.62,0,0,1-1.26,1.44,1.77,1.77,0,0,1-2.5.16,7.57,7.57,0,0,1-1.23-1.22c-1.27-1.52-2.51-3.06-3.76-4.59-0.75-.91-1.55-1.78-2.22-2.74a8.39,8.39,0,0,0-3.23-2.78,2.29,2.29,0,0,0-2.4-.09,2.06,2.06,0,0,0-.66,2.12,5.51,5.51,0,0,0,1.53,3.13c0.81,1,1.68,1.88,2.42,2.9,1.59,2.17,3.12,4.4,4.68,6.6a4.76,4.76,0,0,1,.6,1,2,2,0,0,1,.15,1,2.66,2.66,0,0,1-4.09,1.61,16,16,0,0,1-2.3-2.57c-0.48-.61-0.81-1.33-1.25-2a41.21,41.21,0,0,1-4.23-7.3,4.44,4.44,0,0,0-5-2.56,1.3,1.3,0,0,0-1.18,1.36,4.81,4.81,0,0,0,.32,1.63,44.56,44.56,0,0,0,5.15,9.25,24.84,24.84,0,0,0,3.38,4,6.38,6.38,0,0,1,1.23,1.75,1.51,1.51,0,0,1-.71,2.31c-0.57.33-1.16,0.62-1.76,0.9a1.5,1.5,0,0,1-2.2-.64c-1-1.68-1.9-3.38-2.75-5.12a17.66,17.66,0,0,0-2.77-4.46,14.48,14.48,0,0,1-1.36-2c-1-1.45-1.89-2.92-2.85-4.37a2.25,2.25,0,0,0-1.77-1.09,1.28,1.28,0,0,0-1.53,1.41,6.62,6.62,0,0,0,.17,1.18,19.88,19.88,0,0,0,2.34,5.69c1.38,2.54,3.08,4.92,4.1,7.66a7,7,0,0,0,.77,1.35c0.5,0.75,1,1.48,1.53,2.22a1.11,1.11,0,0,1,0,1.49c-1.81,1.93-4,1.73-5.23-.29-0.53-.84-0.88-1.79-1.33-2.68a9.08,9.08,0,0,0-.88-1.63,12.2,12.2,0,0,1-2.13-4.72,13.65,13.65,0,0,0-.83-2.44c-0.61-1.3-1.31-2.56-2-3.82a3.22,3.22,0,0,0-.86-1,2.09,2.09,0,0,0-2.36-.32c-0.82.45-.77,1.28-0.72,2.07v0.06a10.49,10.49,0,0,0,1.78,5c0.61,0.84,1.22,1.68,1.8,2.55a11.19,11.19,0,0,1,1.07,1.8,22.74,22.74,0,0,0,2.65,4.75,13.4,13.4,0,0,1,1.16,2,1.32,1.32,0,0,1-.8,2.1,19.47,19.47,0,0,1-2.29.71,1.91,1.91,0,0,1-2.2-.84,12.5,12.5,0,0,1-1-1.73c-1.06-2.26-2.07-4.55-3.15-6.81-0.71-1.5-1.49-3-2.27-4.43a4.45,4.45,0,0,0-2.5-2.3,1.4,1.4,0,0,0-2,1.49,4.1,4.1,0,0,0,.31,1.52q1.54,3.41,3.17,6.78c0.93,1.92,2,3.79,2.87,5.74,0.6,1.31.24,2.08-1.14,2.56a25.47,25.47,0,0,1-2.91.69,1.9,1.9,0,0,1-2.17-.9,13.76,13.76,0,0,1-1.23-2.39c-0.77-2.08-1.44-4.2-2.17-6.29-0.59-1.68-1.17-3.36-1.85-5a5.27,5.27,0,0,0-1.27-1.85,1.63,1.63,0,0,0-2.8,1.07,11.15,11.15,0,0,0,.52,5.56q0.73,1.87,1.41,3.76c0.68,1.86,1.36,3.72,2,5.59a1.72,1.72,0,0,1-1.5,2.53,11.92,11.92,0,0,1-2.21.14A2.1,2.1,0,0,1,361,436.2a32.57,32.57,0,0,1-1.05-4.43,58.38,58.38,0,0,1-.9-8.52,1.69,1.69,0,0,0-1.34-1.94c-0.84-.11-1.39.37-1.76,1.53a16.14,16.14,0,0,0-.53,4.45c-0.09,3.07-.25,6.15-0.44,9.22a1.57,1.57,0,0,1-1.86,1.58,8.9,8.9,0,0,1-1.37-.18c-1.76-.37-2.35-1.12-2-2.88a38,38,0,0,1,1.21-4.44,29,29,0,0,0,1.12-6.3c0.14-1.55-1.06-2.26-2.46-1.58a4,4,0,0,0-2.16,2.6,8.53,8.53,0,0,0-.34,2,11.29,11.29,0,0,1-2.74,7,6,6,0,0,0-1,1.69,2.92,2.92,0,0,0,1.71,4.08,17.59,17.59,0,0,0,8,.86c1.21-.15,2.43-0.24,3.64-0.27C358.43,440.63,360.17,440.66,361.9,440.66Zm17.22-43.89c0-.77,0-2,0-3.25a10.06,10.06,0,0,0-1-3.87,2.6,2.6,0,0,0-2.52-1.61,1.36,1.36,0,0,0-1.63,1.42,17.67,17.67,0,0,0,.2,3.69,66.89,66.89,0,0,1,1.21,8.79,4,4,0,0,1-.55,2.47,2.06,2.06,0,0,1-2.11,1.08,1.84,1.84,0,0,1-1.48-1.62,6.83,6.83,0,0,1-.15-0.7c-0.21-1.44-.39-2.89-0.64-4.33-0.32-1.79-.65-3.58-1.08-5.34a4.21,4.21,0,0,0-1-1.62,1.28,1.28,0,0,0-1.5-.28,1.09,1.09,0,0,0-.64,1.24,26.58,26.58,0,0,0,.5,2.82c0.38,1.57.9,3.11,1.21,4.7a33.37,33.37,0,0,1,.57,4.63,2.55,2.55,0,0,1-1.93,2.71,1.59,1.59,0,0,1-2-.8,3.29,3.29,0,0,1-.34-0.89c-0.23-1.09-.5-2.19-0.63-3.3a46.4,46.4,0,0,0-1.89-9.09,1.3,1.3,0,0,0-1.35-1.12,1.25,1.25,0,0,0-1.06,1.39,13.94,13.94,0,0,0,.2,2.44c0.42,2.52,1.33,4.95,1.19,7.56a9.65,9.65,0,0,0,.25,1.6,10.39,10.39,0,0,1,.16,2,2.43,2.43,0,0,1-2.39,2.26,2.39,2.39,0,0,1-2.42-1.91,3.69,3.69,0,0,1-.11-0.53c-0.2-1.87-.37-3.74-0.59-5.6-0.19-1.57-.35-3.14-0.67-4.68-0.28-1.37-1.47-1.67-2.55-.75a2.61,2.61,0,0,0-.79,2.56c0.37,2.67.72,5.35,1.08,8a6.44,6.44,0,0,1-1,4.81,4.56,4.56,0,0,0-.7,1.76,1.27,1.27,0,0,0,1.25,1.67,16.26,16.26,0,0,0,3,0,47.15,47.15,0,0,0,10.48-2.24,8.29,8.29,0,0,1,3.12-.48,5.58,5.58,0,0,0,3.15-.82,10.47,10.47,0,0,1,1.38-.72c3.4-1.34,6.82-2.64,10.22-4a17.24,17.24,0,0,0,2.2-1.2c1.45-.84,2.86-1.76,4.34-2.54,1.89-1,3.85-1.87,5.75-2.85,1.14-.58,2.24-1.24,3.33-1.91,1.89-1.16,3.75-2.37,5.64-3.53,2.94-1.82,5.94-3.56,8.29-6.17,0.84-.93,1.63-1.92,2.51-2.82a39.31,39.31,0,0,0,10.11-17.15A7.81,7.81,0,0,0,426,367a1.84,1.84,0,0,0-1.08-1.86,8.68,8.68,0,0,0-2.51-.92,55.85,55.85,0,0,0-5.62-.3,4.13,4.13,0,0,0-3,1.44,1.84,1.84,0,0,0,.71,3.14c0.32,0.12.66,0.18,1,.33,1.45,0.71,2.93,1.38,4.32,2.19a1.87,1.87,0,0,1,1.06,2.36,10.54,10.54,0,0,1-1.34,2.24,1.87,1.87,0,0,1-2.23.6,12.21,12.21,0,0,1-1.93-1c-1.73-1-3.43-2.05-5.15-3.07a3.14,3.14,0,0,0-2.49-.36,1.51,1.51,0,0,0-.73,2.7c0.42,0.42.86,0.83,1.3,1.25l3.62,3.49c0.49,0.47,1,.9,1.49,1.39a1.29,1.29,0,0,1,.26,1.65,18.63,18.63,0,0,1-1.82,2.43,1.35,1.35,0,0,1-1.86.19,7.12,7.12,0,0,1-1.43-1.09,40.79,40.79,0,0,1-5.27-5.81,7.15,7.15,0,0,0-1.59-1.7,1.12,1.12,0,0,0-1.89.88,3.88,3.88,0,0,0,.16,1.54c0.64,1.78,1.34,3.55,2,5.31s1.42,3.34,2.13,5a1.18,1.18,0,0,1-.18,1.4,22.21,22.21,0,0,1-2.72,2.11,1.33,1.33,0,0,1-1.81-.46,4.2,4.2,0,0,1-.57-0.91c-0.75-1.68-1.44-3.39-2.22-5s-1.67-3.4-2.57-5.07a1.75,1.75,0,0,0-2-.93,1.79,1.79,0,0,0-1.54,1.62,6.2,6.2,0,0,0,.2,2,23.43,23.43,0,0,0,.8,2.51c0.3,0.84.65,1.67,1,2.51,0.7,1.85,1.41,3.69,2.07,5.56a2,2,0,0,1-.62,2.24,5.62,5.62,0,0,1-2.76,1.49,1.25,1.25,0,0,1-1.74-.91,18.52,18.52,0,0,1-.9-3.16,33.28,33.28,0,0,0-2.68-7.87,2.81,2.81,0,0,0-.42-0.66,2.22,2.22,0,0,0-2.58-.5,1.57,1.57,0,0,0-.93,1.88,7.17,7.17,0,0,0,.43,1.8,47.66,47.66,0,0,1,2.59,10.39,2.53,2.53,0,0,1-1.58,2.91,15.08,15.08,0,0,1-2,.68c-1.65.45-2.52-.29-2.42-2C379,399.6,379,398.42,379.12,396.78Zm-7.42-61.09a14.86,14.86,0,0,0,6.63-1.44c1.26-.49,2.56-0.92,3.82-1.41a17.11,17.11,0,0,0,2.28-1,1.76,1.76,0,0,0-.48-3.23c-0.79-.23-1.59-0.39-2.38-0.61a26.44,26.44,0,0,1-4.9-1.53,9.84,9.84,0,0,0-6-1c-2.89.35-5.78,0.92-8.71,0.54-4.22-.55-8.44-1.12-12.65-1.74-2.86-.42-5.55-1.69-8.48-1.8A68.93,68.93,0,0,1,323.87,316a7.71,7.71,0,0,0-1.65-.7c-2.1-.59-3.07.27-2.57,2.38a28.07,28.07,0,0,0,1.39,4.46,62.26,62.26,0,0,0,7.62,13.15,14.72,14.72,0,0,0,3.59,3.59c0.73,0.48,1.45,1,2.15,1.53a3.56,3.56,0,0,0,2.52.76,11.23,11.23,0,0,1,1.92,0c3.66,0.38,7.17-.46,10.62-1.46a62.44,62.44,0,0,1,7.9-2c1.18-.18,2.34-0.52,3.5-0.82,1.47-.37,2.92-0.85,4.41-1.13a21,21,0,0,1,3.51-.27C369.75,335.51,370.73,335.62,371.71,335.68Zm-39.35,20.65c0.17,1,.32,2.09.53,3.13a7.73,7.73,0,0,0,1.16,2.87c2.43,3.65,5.7,6.52,8.73,9.62,1.56,1.6,3.11,3.22,4.51,5,1.6,2,3,4.13,4.51,6.21a12.3,12.3,0,0,0,3.15,3.26c1.72,1.14,2.85,1,4.31-.46,1-1,2-1.9,3.07-2.84a10,10,0,0,0,1-.95,30.4,30.4,0,0,0,4.56-6.73,14.32,14.32,0,0,0,1.39-5.37,1.25,1.25,0,0,0-2.14-1.13,6.57,6.57,0,0,0-1.63,1.87c-1.83,3-3.58,6.11-5.39,9.14a7.29,7.29,0,0,1-1.28,1.57,1.26,1.26,0,0,1-2-.06,18,18,0,0,1-1.36-1.6c-0.91-1.17-.88-1.8.1-2.91s1.87-2,2.72-3.12q2.68-3.39,5.26-6.85a7.59,7.59,0,0,0,1-1.85,1.46,1.46,0,0,0-.24-1.63,1.66,1.66,0,0,0-1.75-.27,3.92,3.92,0,0,0-2,1.6c-0.5.67-1,1.35-1.48,2-1.18,1.67-2.33,3.34-3.52,5-0.74,1-1.48,2.09-2.3,3.07-1.06,1.29-2,1.26-3.06,0-0.4-.47-0.77-1-1.12-1.48-0.95-1.36-.9-2.13.36-3.23,1.76-1.54,3.61-3,5.37-4.51q2.17-1.89,4.21-3.91a3,3,0,0,0,.82-3,1.65,1.65,0,0,0-1.94-1.31,3.66,3.66,0,0,0-1.08.35,28.07,28.07,0,0,0-6.74,4.54c-1.16,1.07-2.34,2.13-3.54,3.15a11.56,11.56,0,0,1-1.85,1.31,2,2,0,0,1-2.69-.49c-1.38-1.52-1.23-2.56.46-3.71a63.57,63.57,0,0,0,9.46-7.24,9.8,9.8,0,0,0,1.25-1.36,1.69,1.69,0,0,0-1.17-2.72,4.17,4.17,0,0,0-2.26.35,36.29,36.29,0,0,0-5,2.91c-1.8,1.32-3.43,2.88-5.15,4.31a8.14,8.14,0,0,1-1.32.92,1.33,1.33,0,0,1-1.47-.14,2.59,2.59,0,0,1-.74-3.67,11.36,11.36,0,0,1,3.66-3.41,42.23,42.23,0,0,1,7-4.1A4.63,4.63,0,0,0,348.5,347a1.66,1.66,0,0,0,.12-1.93,1.49,1.49,0,0,0-1.67-.52,16.28,16.28,0,0,0-7,2.13,42.89,42.89,0,0,0-4.56,3.29A8.36,8.36,0,0,0,332.36,356.33Zm18.78-49c3.09-.18,6.42-0.35,9.74-0.59a28.12,28.12,0,0,0,3.61-.55,1.37,1.37,0,0,0,.86-0.69,0.84,0.84,0,0,0-.53-1,3.57,3.57,0,0,0-.94-0.37c-2.4-.54-4.81-1-7.2-1.6s-4.51-1.23-6.75-1.89c-1.78-.53-3.53-1.13-5.3-1.7a24.33,24.33,0,0,1-2.39-.77c-2.62-1.15-5.21-2.35-7.81-3.54-3.33-1.52-6.64-3.06-10-4.54-2.07-.92-3.4-0.45-4.54,1.51a4.39,4.39,0,0,0-.5,1.21A37.59,37.59,0,0,0,318.33,304a3.56,3.56,0,0,1,0,.78,10.18,10.18,0,0,0,1,5.47,2.49,2.49,0,0,0,2.51,1.61,9.41,9.41,0,0,0,3.54-.8,26.56,26.56,0,0,1,7.31-1.8c1.11-.12,2.23-0.2,3.34-0.3,1.27-.11,2.55-0.19,3.82-0.34s2.7-.32,4-0.55A28.08,28.08,0,0,1,351.14,307.3ZM309.74,297h-0.07c0.05,0.58.09,1.16,0.16,1.73,0.3,2.54.57,5.09,0.94,7.62a29.46,29.46,0,0,0,.89,3.91,1.31,1.31,0,0,0,1.47,1.13c0.55-.12.84-0.64,0.79-1.57-0.06-1.32-.15-2.63-0.26-3.95a18.84,18.84,0,0,1,.37-7.43,2.8,2.8,0,0,0,.1-0.71c0.08-1.54.17-3.07,0.21-4.61a7.52,7.52,0,0,1,.9-3.75,2.84,2.84,0,0,0,.27-0.66,1.22,1.22,0,0,0-1.22-1.72,5.79,5.79,0,0,0-2.1.37,24.88,24.88,0,0,0-5.63,3,52.21,52.21,0,0,1-4.88,3.38c-3.26,1.9-6.14,4.33-9.25,6.45a3.89,3.89,0,0,0-.7.65c-1.27,1.44-2.59,2.84-3.77,4.34a21.49,21.49,0,0,1-6.54,5.64,9.59,9.59,0,0,0-3.85,4.08,6,6,0,0,0,1.25,7c1.24,1.18,2.38,2.48,3.55,3.73,0.64,0.69,1.2,1.46,1.9,2.08a6.27,6.27,0,0,0,1.92,1.16,1.28,1.28,0,0,0,1.8-1.18,4.22,4.22,0,0,0-.55-2.71,31.22,31.22,0,0,0-3.41-5.13,29.39,29.39,0,0,1-2.29-3.3,1.59,1.59,0,0,1,.28-2.28,9.13,9.13,0,0,1,1.95-1.37,1.17,1.17,0,0,1,1.68.44c0.35,0.48.62,1,.94,1.53,1.29,2.09,2.56,4.19,3.88,6.27a13.26,13.26,0,0,0,1.4,1.8c1,1.07,2.12.77,2.51-.62a4.54,4.54,0,0,0-.2-3.4c-1.5-2.92-2.73-6-5.21-8.34a1.57,1.57,0,0,1-.51-0.79,2.44,2.44,0,0,1,.06-1.42,5.61,5.61,0,0,1,2.92-2.56,1.25,1.25,0,0,1,1.64.47,10.22,10.22,0,0,1,.72,1.31c1.24,2.46,2.47,4.94,3.73,7.39a9.89,9.89,0,0,0,1.21,1.86,3.42,3.42,0,0,0,1.31,1,1.42,1.42,0,0,0,2-1.6,3.88,3.88,0,0,0-.16-0.82,50,50,0,0,0-4.61-11c-1-1.65-.9-2.25.42-3.65a5.62,5.62,0,0,1,.75-0.68c1.27-.93,2.28-0.65,2.89.81,0.11,0.26.21,0.52,0.29,0.79q1,3.38,2.06,6.77c0.38,1.24.74,2.49,1.16,3.72a3.63,3.63,0,0,0,.66,1.2,1,1,0,0,0,1.74-.28,3.45,3.45,0,0,0,.24-1.63,42.63,42.63,0,0,0-1-5.72c-0.69-2.42-1.36-4.84-1.9-7.31a3.18,3.18,0,0,1,1.2-3.4,5.94,5.94,0,0,1,1.68-.9,1.44,1.44,0,0,1,2.06,1.18A14,14,0,0,1,309.74,297Zm114.69,43.63a14.72,14.72,0,0,0,7.08-1.77c1.35-.66,2.74-1.23,4.09-1.87a133,133,0,0,0,13.3-6.62,29.12,29.12,0,0,1,2.74-1.49c3.12-1.48,6.24-3,9.39-4.39a51.41,51.41,0,0,0,7.39-4.45,18.88,18.88,0,0,0,2.45-2.19,1.29,1.29,0,0,0,.34-1.44,1.27,1.27,0,0,0-1.25-.77,11,11,0,0,0-1.56,0,13.41,13.41,0,0,0-6.51,2.86c-1.14.8-2.33,1.55-3.52,2.28s-2.66,1.42-3.86,2.3a89.82,89.82,0,0,1-13,7.75c-1.45.73-3,1.32-4.41,2-3.35,1.65-6.68,3.34-10,5a5,5,0,0,1-3,.57,5.43,5.43,0,0,1-4.44-4c-0.73-2.1-.07-3.67,1.78-4.91,0.27-.18.55-0.33,0.81-0.51,2.32-1.63,4.69-3.2,7-4.91,1.83-1.38,3.51-3,5.33-4.37a9.51,9.51,0,0,0,3.86-5.95,24.14,24.14,0,0,0,.12-8.42A110.22,110.22,0,0,0,435.8,294a60.77,60.77,0,0,1-2-8.31,6.65,6.65,0,0,1,.09-2.6,9,9,0,0,1,5.25-6.17,22.56,22.56,0,0,1,3.5-1c1.11-.29,1.45-1.23.58-2a5.38,5.38,0,0,0-2-1.05,8.21,8.21,0,0,0-5.6.56,11.39,11.39,0,0,0-5.87,5.4,6.5,6.5,0,0,0-.7,4.52,31,31,0,0,1,.72,4.61,19.12,19.12,0,0,0,1.61,6.11c1,2.49,2,5,2.94,7.47,1.08,3.05,1.86,6.19,1.3,9.47a10.49,10.49,0,0,1-3.55,6.76,52.45,52.45,0,0,1-8,5.52,20.81,20.81,0,0,0-5.74,4.18,4.89,4.89,0,0,0-1.15,4.94c0.25,0.89.58,1.75,0.75,2.65a6.75,6.75,0,0,0,2.24,3.74A5.36,5.36,0,0,0,424.43,340.59ZM270.75,384l0,0.16c-1.15-.13-2.31-0.19-3.44-0.42a3.23,3.23,0,0,1-2.62-2.8,2.05,2.05,0,0,1,2.4-2.51c0.95,0.15,1.88.36,2.81,0.6a13.57,13.57,0,0,0,5.05.42,1.39,1.39,0,0,0,1.3-1.87,2.52,2.52,0,0,0-2.29-2.05c-1.52-.26-3-0.47-4.56-0.75a11.88,11.88,0,0,1-2.19-.6,3.36,3.36,0,0,1-2.07-2.68,2.09,2.09,0,0,1,2.19-2.45,5.27,5.27,0,0,1,.83.12c1.67,0.33,3.32.72,5,1a35.2,35.2,0,0,0,4.11.32,1.41,1.41,0,0,0,1.46-1.12,1.7,1.7,0,0,0-.59-1.94,4.85,4.85,0,0,0-1.27-.66q-2.46-.87-4.94-1.67c-1.37-.44-2.77-0.8-4.13-1.25a3.15,3.15,0,0,1-2-4,2,2,0,0,1,2.94-1.51,8.5,8.5,0,0,1,1,.44c1.27,0.64,2.5,1.35,3.79,1.94,1.56,0.72,3.15,1.37,4.74,2a4.19,4.19,0,0,0,1.23.25c1.41,0.11,2.05-.84,1.39-2.11a3.05,3.05,0,0,0-.88-1,14,14,0,0,0-1.72-1c-0.6-.31-1.21-0.61-1.82-0.91a15.44,15.44,0,0,0-1.89-.9,36.47,36.47,0,0,1-6.48-3.11,2.84,2.84,0,0,1,1.61-5.26c0.4,0,.92.1,1-0.36a1.73,1.73,0,0,0-.32-1.12c-0.26-.42-0.69-0.73-1-1.15a3.17,3.17,0,0,1,0-3.67A3,3,0,0,1,272.7,341a4.64,4.64,0,0,1,2.66,1.4c2.43,2.59,5.44,4.37,8.41,6.23a3.13,3.13,0,0,0,.87.38,1.09,1.09,0,0,0,1.47-1,2.91,2.91,0,0,0-.82-2.75,21.32,21.32,0,0,0-2.15-1.81c-1.32-.93-2.72-1.76-4-2.68s-2.35-1.67-3.46-2.58a8.43,8.43,0,0,0-3.56-1.9c-1.33-.28-2.38.05-2.84,1.18-0.71,1.74-1.71,3.34-2.46,5a44.39,44.39,0,0,0-2.1,6.49c-0.52,2-.84,4.07-1.2,6.11-0.25,1.42-.41,2.85-0.62,4.27-0.37,2.59-.79,5.17-1.12,7.77a29,29,0,0,0-.2,7,27.18,27.18,0,0,1,.08,3c0,0.8,0,1.6-.07,2.39a13.52,13.52,0,0,1-.06,1.67,15.23,15.23,0,0,0,.64,7.52,35,35,0,0,0,2,4.63,4.11,4.11,0,0,0,4.21,2.31c0.76-.06,1.53,0,2.28-0.12,1-.14,2-0.34,3-0.57a1.05,1.05,0,0,0,.86-1,1.18,1.18,0,0,0-.79-1.17,2.53,2.53,0,0,0-.87-0.21c-0.72,0-1.44,0-2.16,0a8.19,8.19,0,0,1-3.39-.65,3.26,3.26,0,0,1-2-2.82,1.68,1.68,0,0,1,1.92-2c0.48,0,1,.13,1.43.17a15.86,15.86,0,0,0,4.9-.06,1.45,1.45,0,0,0,1.3-1.3,1.56,1.56,0,0,0-1-1.63,3.52,3.52,0,0,0-1.15-.31C272,383.93,271.37,384,270.75,384Zm23.47,5.76,0-.17a1.44,1.44,0,0,0,1.66-1,1.46,1.46,0,0,0-1-1.76c-0.32-.16-0.66-0.29-1-0.43-1.82-.73-3.64-1.44-5.46-2.18a13.7,13.7,0,0,1-4.51-2.68,2.24,2.24,0,0,1-.07-3.28c0.77-1,1.5-1.12,2.78-.41l0.42,0.24c2.43,1.26,4.85,2.55,7.3,3.77a14.24,14.24,0,0,0,2.7,1,4.53,4.53,0,0,0,1.77.07,1.7,1.7,0,0,0,1.45-1.48,2.82,2.82,0,0,0-1.46-3.36c-1.55-.87-3.14-1.67-4.73-2.46a26.07,26.07,0,0,0-5.06-1.84,9,9,0,0,1-2.54-1.16,2.51,2.51,0,0,1,2.32-4.36,23.59,23.59,0,0,1,2.62,1.31c0.68,0.37,1.31.87,2,1.18q3.69,1.66,7.42,3.23a8,8,0,0,0,1.79.47,1,1,0,0,0,1.12-.51,1.16,1.16,0,0,0-.21-1.29,2.19,2.19,0,0,0-.59-0.51c-1.55-.88-3.11-1.73-4.66-2.6-1.87-1-3.74-2.07-5.61-3.12a7.77,7.77,0,0,1-2.68-2.7,1.44,1.44,0,0,1,.45-2.26,14.28,14.28,0,0,1,1.77-1,2.13,2.13,0,0,1,2.94.59,4.82,4.82,0,0,1,.55.71,20.82,20.82,0,0,0,5.68,5.7,4.68,4.68,0,0,0,1.31.7,1,1,0,0,0,.9-0.15,1,1,0,0,0-.08-0.9c-0.8-1.15-1.64-2.27-2.49-3.38s-1.75-2.24-2.67-3.31a32.64,32.64,0,0,0-2.83-3.08,3.31,3.31,0,0,0-4.26-.31,29.48,29.48,0,0,0-5.53,5.79c-1,1.37-1.3,3-2,4.47a39.69,39.69,0,0,0-3.13,9.48c-0.35,1.68-.95,3.3-1.37,5a15.21,15.21,0,0,0-.59,3.17c-0.08,2.22,0,4.44,0,6.66,0,0.68,0,1.36.09,2a1.06,1.06,0,0,0,1.21,1.11,6.38,6.38,0,0,0,1.19-.11,16,16,0,0,1,6,.08c1.1,0.22,2.21.33,3.33,0.45a1,1,0,0,0,1.21-.64,1.08,1.08,0,0,0-.66-1.22,1.32,1.32,0,0,0-.32-0.16c-1.72-.51-3.44-1-5.17-1.51-0.88-.25-1.8-0.38-2.66-0.69a2.67,2.67,0,0,1-1.69-3.88c0.56-1.36,1.38-1.65,2.72-1.05,1.77,0.79,3.53,1.61,5.35,2.29C290.94,388.83,292.6,389.23,294.22,389.72Zm88.93-88.22c0.09,2.35.13,4,.21,5.67,0.06,1.22.19,2.43,0.23,3.65a18.22,18.22,0,0,0,3.41,9.78,26.64,26.64,0,0,1,3.48,7.34c0.57,1.88,2.44,2.31,3.86,2.29a0.85,0.85,0,0,0,.65-0.48,1,1,0,0,0-.35-0.73,2.68,2.68,0,0,0-.75-0.36,8.64,8.64,0,0,1-1.13-.55,1.86,1.86,0,0,1-.77-2.05c0.2-.62.58-0.76,1.62-0.81a4.2,4.2,0,0,0,1.58-.41,1,1,0,0,0,.47-1.2,1,1,0,0,0-.94-0.8,5.63,5.63,0,0,0-1.37,0c-1.66.24-2.23,0-3.12-1.46s-0.62-2.62,1-3.36a5.9,5.9,0,0,0,1.41-.77,1.61,1.61,0,0,0-.57-2.82,2.83,2.83,0,0,0-2.21.19c-0.3.15-.59,0.34-0.89,0.49a1.38,1.38,0,0,1-2-.51,5.48,5.48,0,0,1-.75-1.93,2.75,2.75,0,0,1,2.38-3.4,5.62,5.62,0,0,0,1-.31,1.35,1.35,0,0,0,.84-1.15,1.39,1.39,0,0,0-1.32-1.61c-0.71-.08-1.44,0-2.15-0.09a2.3,2.3,0,0,1-1.67-3.39,2.35,2.35,0,0,1,1.23-.72,5.58,5.58,0,0,1,1.25,0,4.94,4.94,0,0,0,1.12-.15,1.37,1.37,0,0,0,1-1.47,1.27,1.27,0,0,0-1.12-1.22c-0.47-.1-1-0.13-1.42-0.25a1.69,1.69,0,0,1-1.35-1.75,4.25,4.25,0,0,1,.27-1.34,1.39,1.39,0,0,1,1.84-1,10,10,0,0,0,1.77.24,1.53,1.53,0,0,0,1.72-1.39,1.57,1.57,0,0,0-1.44-1.75c-0.57-.12-1.15-0.18-1.7-0.34a1.53,1.53,0,0,1-1.17-1.67,2.37,2.37,0,0,1,1.5-2.25,1.92,1.92,0,0,1,.87.13c0.32,0.11.59,0.36,0.91,0.45a8.18,8.18,0,0,0,2,.41,1.38,1.38,0,0,0,1.4-1.79,1.74,1.74,0,0,0-1.09-1.34c-0.47-.22-1-0.39-1.43-0.63a1.73,1.73,0,0,1-1-2.14,5.05,5.05,0,0,1,.38-1.13c0.5-1,1.14-1.16,2.08-.52a7.85,7.85,0,0,0,1.43.86,1.73,1.73,0,0,0,2.35-.92,2.18,2.18,0,0,0-.81-2.74c-0.25-.17-0.51-0.32-0.74-0.51a1.39,1.39,0,0,1-.38-2.05,6.75,6.75,0,0,1,1.17-1.35c1.16-1,1.72-1,2.93,0a8.58,8.58,0,0,0,1.83,1.23,1.53,1.53,0,0,0,2.27-1.49,6,6,0,0,0-.54-2,2,2,0,0,1-.24-1.54,2.15,2.15,0,0,1,3.85-.7l0.19,0.23a2.73,2.73,0,0,0,3.49.82,1.94,1.94,0,0,0,1-2.9,3.57,3.57,0,0,0-.92-1,5.47,5.47,0,0,0-5.52-.71,19.81,19.81,0,0,0-7.25,4.69,55.36,55.36,0,0,0-3.89,4.48,51.77,51.77,0,0,0-3.89,5.31,53.34,53.34,0,0,0-3.53,6.88c-0.94,2.22-2,4.41-2.14,6.94S383.3,299.66,383.15,301.5Zm-53,65.36a8,8,0,0,0-1.53.27c-1.7.65-3.41,1.27-5,2.06-2.86,1.37-5.67,2.85-8.51,4.27-1,.5-1.4,1.14-0.95,2.17a8.25,8.25,0,0,0,1.55,2.38,23.08,23.08,0,0,1,3.32,4.31c0.41,0.69.84,1.36,1.24,2.05a8.74,8.74,0,0,0,5.68,4.26,15.3,15.3,0,0,1,2.34.74,3.43,3.43,0,0,0,4-.69,11.49,11.49,0,0,1,6.45-2.78,14.85,14.85,0,0,0,5.23-1.85,5.2,5.2,0,0,0,1.06-.77,1.89,1.89,0,0,0-.81-3.24,3.06,3.06,0,0,0-1.36,0,7.69,7.69,0,0,0-1.59.53q-2.78,1.2-5.54,2.44-1.31.59-2.59,1.24c-1.65.85-3.26,1.78-4.94,2.56a2.26,2.26,0,0,1-2.95-.76,6.5,6.5,0,0,1-.95-1.72,1.53,1.53,0,0,1,.64-2,9.22,9.22,0,0,1,2-.85c0.7-.23,1.45-0.32,2.14-0.57,2.69-1,5.36-2,8-3a11,11,0,0,0,1.36-.63,1.67,1.67,0,0,0,1-1.64,1.83,1.83,0,0,0-1.23-1.63,3.09,3.09,0,0,0-2.46,0c-2.62,1.08-5.23,2.21-7.85,3.3-1.64.68-3.26,1.43-4.94,2a2.31,2.31,0,0,1-3.07-1.37c-1.1-2.07-.71-3.07,1.51-3.8,1.92-.63,3.85-1.2,5.77-1.83,1.63-.54,3.27-1.06,4.87-1.69a1.66,1.66,0,0,0,.36-3.05A3.75,3.75,0,0,0,330.15,366.86Zm-21.47-48.6a4.49,4.49,0,0,0-3.22.81c-3,2-6.09,4-9.06,6.06a32.24,32.24,0,0,0-5.61,5.12,3.44,3.44,0,0,0-.81,3.38c0.29,1.14.47,2.31,0.66,3.47a3.55,3.55,0,0,0,1,2.18c1.2,1.05,2.44,2.06,3.72,3a3.61,3.61,0,0,0,1.56.55,1.19,1.19,0,0,0,1.42-1,2.56,2.56,0,0,0-.59-2.51c-1.56-1.68-3.1-3.38-4.66-5.07a1.57,1.57,0,0,1-.34-2,7.08,7.08,0,0,1,1.3-1.69,1.72,1.72,0,0,1,2.65.15,12.11,12.11,0,0,1,1.17,1.52,14.89,14.89,0,0,0,3.19,3.32,3.31,3.31,0,0,0,1.33.63,1,1,0,0,0,1.33-1,3.75,3.75,0,0,0-.36-1.71,7.85,7.85,0,0,0-1.2-1.55c-0.83-.95-1.72-1.84-2.52-2.82a1.72,1.72,0,0,1,0-2.49c1.34-1.58,2.13-1.49,3.38.17,1.07,1.42,2.27,2.73,3.45,4.06a2.28,2.28,0,0,0,1.76.78,1.31,1.31,0,0,0,1.46-1.33,3.86,3.86,0,0,0-.56-2.36c-0.57-1-1.21-1.88-1.81-2.83a20.85,20.85,0,0,1-1.14-1.9,1.27,1.27,0,0,1,.52-1.77,2.23,2.23,0,0,1,3.24.67c0.38,0.58.59,1.27,0.95,1.87a21.51,21.51,0,0,0,1.88,2.82,2.13,2.13,0,0,0,2.76.58,2.55,2.55,0,0,0,1.61-2.74,6,6,0,0,0-1.32-3.1c-0.55-.69-1.12-1.36-1.64-2.06a3.53,3.53,0,0,0-3.58-1.44C310,318.14,309.28,318.2,308.68,318.27Zm16.71,23.61a18.1,18.1,0,0,0-.48-1.86,51.45,51.45,0,0,0-3.85-7.31,3.89,3.89,0,0,0-.51-0.66,3.62,3.62,0,0,0-4.94-.87c-1.53.9-3,2-4.45,2.93a15.77,15.77,0,0,0-3.55,3.11,9.22,9.22,0,0,1-.76.77,20.67,20.67,0,0,0-4.25,6.33,3.45,3.45,0,0,0,.32,3.6,22.34,22.34,0,0,0,7.23,6.73,3.86,3.86,0,0,0,2.54.51,1.11,1.11,0,0,0,1-1.55,3.77,3.77,0,0,0-.65-1.13c-1.91-2.41-3.85-4.8-5.77-7.19a1.75,1.75,0,0,1-.48-1.55,5.31,5.31,0,0,1,3-3.77,1.65,1.65,0,0,1,2.07.43,5.11,5.11,0,0,1,.65.93c0.64,1.13,1.19,2.32,1.91,3.39a33.87,33.87,0,0,0,2.72,3.57,3.63,3.63,0,0,0,1.67,1,1.17,1.17,0,0,0,1.59-1.2,4.42,4.42,0,0,0-.44-1.89,19.18,19.18,0,0,0-1.53-2.36c-1.17-1.67-2.37-3.32-3.53-5a6.62,6.62,0,0,1-.77-1.48,2.05,2.05,0,0,1,.76-2.5,6.2,6.2,0,0,1,1.85-.78,1.67,1.67,0,0,1,1.75.67,5.56,5.56,0,0,1,.79,1.27c0.44,1,.8,2.09,1.22,3.13,0.54,1.33,1.07,2.67,1.68,4a3.18,3.18,0,0,0,.9,1.1,1.23,1.23,0,0,0,2-.64A15.52,15.52,0,0,0,325.39,341.87Zm43.66-2.13c-0.58.07-1.42,0.12-2.24,0.27a36.79,36.79,0,0,0-10.12,3.47c-1.41.72-1.84,1.47-1.21,2.95a13,13,0,0,0,1.91,3.36c1.72,2,3.57,3.94,5.45,5.82a9.3,9.3,0,0,0,2.23,1.46,10.61,10.61,0,0,0,1.8.66,3.65,3.65,0,0,1,2.07,1.63c0.78,1.27,1.52,1.47,2.87.85a5,5,0,0,0,.74-0.39q3.22-2.2,6.42-4.42a3.27,3.27,0,0,0,.57-0.53,1.5,1.5,0,0,0,.42-1.59,1.44,1.44,0,0,0-1.39-.86,6.6,6.6,0,0,0-3.34.58c-1.22.55-2.37,1.24-3.58,1.82a35.71,35.71,0,0,1-3.33,1.5,3.17,3.17,0,0,1-3.71-1.08c-1.31-1.53-1-2.6,1-3.13,1.33-.37,2.65-0.77,4-1a15.43,15.43,0,0,0,5.88-2.74,3.08,3.08,0,0,0,.84-0.84,1.23,1.23,0,0,0-1.11-2,9,9,0,0,0-2.37.54c-1,.33-1.93.78-2.9,1.15-1.9.73-3.8,1.47-5.72,2.16a12.16,12.16,0,0,1-2.35.66,3.64,3.64,0,0,1-3.53-1.6,1.11,1.11,0,0,1,.29-1.76,5.23,5.23,0,0,1,1.46-.67c1.58-.44,3.18-0.79,4.76-1.22q3.29-.9,6.57-1.88a3.22,3.22,0,0,0,1.18-.69,1.11,1.11,0,0,0-.25-1.89,3.19,3.19,0,0,0-1-.31C370.63,339.85,370,339.82,369.05,339.74Zm55-21.79a12.19,12.19,0,0,0,5-.9,6.42,6.42,0,0,0,3.33-2.89c1.37-2.53.79-7.25-1.12-9.41l0,0a9.7,9.7,0,0,0-7.92-3.39c-3.53.22-5.76,2.16-7.31,5.12a3,3,0,0,0-.25,1.1,17.75,17.75,0,0,0-.14,2.57A7,7,0,0,0,416,313c1.49,2.76,3.49,5,7,4.94C423.38,317.89,423.72,317.93,424.06,317.95ZM409.22,442.78a11,11,0,0,0-1.16-4.66,2.27,2.27,0,0,0-1.89-1.29,3.89,3.89,0,0,0-3.69,2.3,18.74,18.74,0,0,0-.62,3.88,34.88,34.88,0,0,0,.07,3.52c0,0.42,0,.84,0,1.26a20.89,20.89,0,0,0,2.33,9.58,6,6,0,0,1,.29.79,1.12,1.12,0,0,0,2.16.17,20.75,20.75,0,0,0,.9-2.66c0.21-.83.21-1.72,0.47-2.53C409.15,449.85,409,446.46,409.22,442.78Zm-75.84-43.2a6.41,6.41,0,0,0,3.06-.89,68.83,68.83,0,0,0,8.92-5.84,32.28,32.28,0,0,0,3.23-2.93,3.48,3.48,0,0,0,.79-1.18,1.35,1.35,0,0,0-1.19-2,6,6,0,0,0-1.59.16,30,30,0,0,0-6.62,2.44,14.69,14.69,0,0,0-3.87,2.37,17.66,17.66,0,0,1-1.69,1.24,3.41,3.41,0,0,1-3.61.51,1.05,1.05,0,0,0-1,.13,1.09,1.09,0,0,0-.11,1q0.91,2,1.95,4A1.82,1.82,0,0,0,333.38,399.58Zm93.69,32.93c0-1.11,0-2,0-2.79a5.06,5.06,0,0,0-1.61-3.69,2.8,2.8,0,0,0-4.07,0,8.09,8.09,0,0,0-1.21,1.4,3.6,3.6,0,0,0-.62,1.69c0,1.84.1,3.67,0.18,5.51a17.93,17.93,0,0,0,1.68,5.6,34.55,34.55,0,0,0,1.45,3.22,1.52,1.52,0,0,0,1.58.88,1.44,1.44,0,0,0,1.25-1.14,18.05,18.05,0,0,0,.68-3C426.66,437.57,426.86,434.9,427.07,432.51ZM340.16,256.92l0,0.12c-0.28,0-.56,0-0.84.06a1.15,1.15,0,0,0-1,1.77,3.59,3.59,0,0,0,.57.83c0.32,0.38.71,0.71,1,1.09a18.82,18.82,0,0,0,7.31,5.38,6.59,6.59,0,0,0,5-.12,1.86,1.86,0,0,0,.84-0.65,13.69,13.69,0,0,0,1.45-2.32c0.72-1.65.22-2.64-1.5-3.13-2.15-.61-4.3-1.24-6.48-1.75S342.28,257.34,340.16,256.92ZM366,455.67h0.14c0,0.12,0,.24,0,0.36,0.08,2.18.15,4.35,0.28,6.52a1.22,1.22,0,0,0,.58.92,1.32,1.32,0,0,0,1.06-.31,4.77,4.77,0,0,0,1.1-1.33c1.59-2.94,3.51-5.74,3.83-9.21,0-.18.1-0.35,0.11-0.53a34.85,34.85,0,0,0,.16-3.75,4.59,4.59,0,0,0-.71-1.87,1.89,1.89,0,0,0-1.93-1c-0.54,0-1.07.14-1.6,0.24-1.76.33-2.39,0.95-2.55,2.74C366.31,450.89,366.2,453.28,366,455.67Zm20,1c0,0.65,0,1.49,0,2.33s0.11,1.79.21,2.69a0.9,0.9,0,0,0,.75.9,1,1,0,0,0,1-.6,6.94,6.94,0,0,0,.38-0.88c0.85-2.2,1.68-4.41,2.56-6.59a17.15,17.15,0,0,0,1.29-6.06,15,15,0,0,0-.4-3.61,2.14,2.14,0,0,0-2.74-1.78,9.23,9.23,0,0,0-2.57,1.07,2.51,2.51,0,0,0-1.3,2.36,12.87,12.87,0,0,0,.26,2.74A21.41,21.41,0,0,1,386,456.72Zm-80.89-55.79a10.61,10.61,0,0,0,4.4-1.16,21.73,21.73,0,0,1,2.58-.95,24.88,24.88,0,0,0,7.9-3.52,2.27,2.27,0,0,0,1.09-2.47,2.38,2.38,0,0,0-2-1.79,5.14,5.14,0,0,0-3.21.43,50.34,50.34,0,0,0-11.25,6.59,4.22,4.22,0,0,0-1,1,1.13,1.13,0,0,0,.92,1.85C304.8,400.92,305,400.92,305.12,400.93Zm34.84-115c-2.23.22-4.73,0.45-7.23,0.73a5.07,5.07,0,0,0-1.49.42,1.17,1.17,0,0,0-.39,1.93,3.19,3.19,0,0,0,.75.59,24.5,24.5,0,0,0,10.1,3.37,3.21,3.21,0,0,0,2.25-.4,4.61,4.61,0,0,0,2.3-4c0-1.81-.76-2.6-2.58-2.61H340Zm117.69,93.31a3.57,3.57,0,0,0,1.18,2.62,19.51,19.51,0,0,0,8.18,5.47,26.53,26.53,0,0,0,4.32,1.2c1.48,0.24,2.14-.81,1.55-2.2a2.65,2.65,0,0,0-.53-0.86,11.58,11.58,0,0,0-1.71-1.48c-1.24-.81-2.53-1.53-3.81-2.27a14.86,14.86,0,0,1-5.23-4.39,3,3,0,0,0-1-.86,1.71,1.71,0,0,0-2.63,1A16.76,16.76,0,0,0,457.65,379.23ZM337.18,312.43v0a35.36,35.36,0,0,0-3.77,0c-1.56.17-3.1,0.52-4.65,0.82a0.93,0.93,0,0,0-.85.81,1,1,0,0,0,.67,1,9.74,9.74,0,0,0,1.26.54c1.87,0.63,3.74,1.27,5.64,1.83s3.81,1,5.72,1.54a4.11,4.11,0,0,0,.77.12,2.57,2.57,0,0,0,2.7-1.58,5.15,5.15,0,0,0,.48-2.74,2.37,2.37,0,0,0-1.85-2.24,10,10,0,0,0-3.68-.32C338.82,312.34,338,312.38,337.18,312.43Zm15.55,137.32c0-.58,0-1.16-0.11-1.73a1.75,1.75,0,0,0-1-1.36c-1.32-.68-3.89.17-4.39,1.56a28,28,0,0,0-1.85,6.86c-0.17,1.95-.3,3.9-0.44,5.85a4.89,4.89,0,0,0,0,.78c0.1,1.11.85,1.54,1.78,0.92a5,5,0,0,0,1.47-1.53,34,34,0,0,0,3.27-6.51C352,453,352.77,451.49,352.73,449.76ZM314.27,363.7a1.36,1.36,0,0,0,1.83,1.37,3.58,3.58,0,0,0,2-1.42c1-1.25,1.91-2.51,2.79-3.82a37.42,37.42,0,0,1,7.6-8.73,23,23,0,0,0,2.35-2.3,2.57,2.57,0,0,0,.54-1,0.91,0.91,0,0,0-1-1.28,3,3,0,0,0-1.26.3,17.06,17.06,0,0,0-4.46,3.2,118.88,118.88,0,0,0-8.1,9.39,22.36,22.36,0,0,0-1.83,2.88A7.43,7.43,0,0,0,314.27,363.7Zm24.49,84c0-1.51-.55-2.27-1.75-2.57a2.33,2.33,0,0,0-2.58.82,10.84,10.84,0,0,0-1.23,2c-0.93,2-1.75,4-2.7,6a18.12,18.12,0,0,0-1.37,5c-0.2,1.19.48,1.74,1.65,1.37a3,3,0,0,0,1.07-.52,15.66,15.66,0,0,0,2.41-2.38,47.21,47.21,0,0,0,2.74-4.5A14.88,14.88,0,0,0,338.76,447.72Zm104.49-40.51a7.45,7.45,0,0,0,2.14,4.12,63.24,63.24,0,0,0,9,6.71,3.78,3.78,0,0,0,1.26.52,0.82,0.82,0,0,0,1.07-.93,3.45,3.45,0,0,0-.51-1.5c-0.84-1.23-1.74-2.43-2.68-3.6-1.23-1.54-2.54-3-3.77-4.57a9.07,9.07,0,0,0-2.56-2.32,3.27,3.27,0,0,0-2.3-.46A2,2,0,0,0,443.24,407.21ZM392.1,252.47a14.4,14.4,0,0,0-.58-1.39c-1.45-2.77-3.75-4.91-5.58-7.39a1.36,1.36,0,0,0-.17-0.17,1.81,1.81,0,0,0-2-.56,1.65,1.65,0,0,0-1.08,1.71,9.32,9.32,0,0,0,.4,3c0.76,2,1.71,3.87,2.61,5.78a11.54,11.54,0,0,0,.93,1.46,1.57,1.57,0,0,0,1.87.7,23,23,0,0,0,2.21-.74A2.3,2.3,0,0,0,392.1,252.47Zm51.65,176.2-0.14-.09a6.79,6.79,0,0,0-.14-0.95c-0.76-2.59-1.52-5.18-2.33-7.75a4.7,4.7,0,0,0-.85-1.36c-0.7-.9-1.43-1.77-2.16-2.65a8,8,0,0,0-.79-0.9,2.08,2.08,0,0,0-3.39.72,2.73,2.73,0,0,0,0,2.38,18.26,18.26,0,0,0,1.3,2.28c0.8,1.19,1.67,2.35,2.51,3.51l3.86,5.34,0.12,0.13a1,1,0,0,0,1.3.44A3.35,3.35,0,0,0,443.75,428.66Zm6.72-35.08a3.81,3.81,0,0,0,.82,2.56,12.61,12.61,0,0,0,3.56,3.35c2.16,1.29,4.4,2.46,6.6,3.67a1.21,1.21,0,0,0,.55.21,1.7,1.7,0,0,0,1-.2,1.09,1.09,0,0,0,.06-1,8.78,8.78,0,0,0-1-1.6c-1.11-1.44-2.28-2.84-3.37-4.29a27.46,27.46,0,0,0-4.52-4.62,2.34,2.34,0,0,0-2.56-.51,2.26,2.26,0,0,0-1.15,2.16C450.47,393.43,450.47,393.53,450.47,393.58Zm-147,.14a5,5,0,0,0,2.77-.84c1.16-.7,2.32-1.4,3.52-2,1.41-.75,2.87-1.4,4.29-2.15a4,4,0,0,0,1.2-1,2,2,0,0,0-1.25-3.42,4.36,4.36,0,0,0-1.93.17,10.18,10.18,0,0,0-2.34,1.07q-3.28,2-6.48,4.2a5.87,5.87,0,0,0-1.51,1.43,1.52,1.52,0,0,0,1.13,2.49C303.1,393.7,303.3,393.7,303.5,393.72Zm170.73-28.45v0c1.18,0,2.36,0,3.53,0a1,1,0,0,0,1-.67,1.1,1.1,0,0,0-.48-1.2,2.83,2.83,0,0,0-.44-0.3,23.7,23.7,0,0,0-5.54-2.4q-2.73-.7-5.47-1.35a2,2,0,0,0-2.77,1.37,4.53,4.53,0,0,0-.34,1.08,2.43,2.43,0,0,0,2.51,3.17l0.42,0ZM371.34,255.54a4.12,4.12,0,0,0,3.06-1.63c1-1.1,1-2.16-.22-3-2.26-1.54-4.58-3-6.94-4.39a7.42,7.42,0,0,0-2.38-.77,1,1,0,0,0-1.25,1.34,4.55,4.55,0,0,0,.37,1.13,23.72,23.72,0,0,0,4.22,5.79A4.66,4.66,0,0,0,371.34,255.54Zm-94.67,155a1.87,1.87,0,0,0,.87,1.76,1.84,1.84,0,0,0,2.06-.37c0.22-.17.41-0.38,0.63-0.56,1.09-.91,2.17-1.83,3.29-2.7s2.1-1.53,3.14-2.31a5.57,5.57,0,0,0,1-.94,2.64,2.64,0,0,0-.12-3.18,2,2,0,0,0-2.62-.38,6.57,6.57,0,0,0-1.19.69,44.85,44.85,0,0,0-4.21,3.27,18.45,18.45,0,0,0-2.46,3.29A4.78,4.78,0,0,0,276.66,410.51Zm-13.17-78.3a1.83,1.83,0,0,0,1.85-2.38,3.5,3.5,0,0,0-.74-1.34,25.33,25.33,0,0,0-8.07-6.19A3.66,3.66,0,0,0,255,322a1.32,1.32,0,0,0-1.36,1.38,2.41,2.41,0,0,0,.85,2c1.86,1.73,3.71,3.46,5.61,5.14a10.71,10.71,0,0,0,2.06,1.31A7.26,7.26,0,0,0,263.49,332.21Zm138.77-1.88c-0.05-.84-0.05-1.48-0.14-2.11a1.05,1.05,0,0,0-1-1A1.11,1.11,0,0,0,400,328a6.85,6.85,0,0,0-.31,1.09q-0.46,1.86-.9,3.73c-0.21.87-.48,1.74-0.61,2.63A13.94,13.94,0,0,0,400,345.49a5.21,5.21,0,0,0,1.22,1.35,1.18,1.18,0,0,0,1.09,0,1.24,1.24,0,0,0,.3-1,7.71,7.71,0,0,0-.43-1.24,20.25,20.25,0,0,1-.95-3.57,23.9,23.9,0,0,1,.43-6.86C401.91,332.84,402.08,331.49,402.26,330.33Zm-119.6-44.78a16.3,16.3,0,0,0,.56,2.43c0.88,2.19,1.82,4.35,2.79,6.5a3.41,3.41,0,0,0,.9,1.17,2,2,0,0,0,3.18-.53c0.22-.36.4-0.74,0.61-1.1a2.59,2.59,0,0,0-.26-3.08,22.61,22.61,0,0,0-1.52-1.93c-1.38-1.44-2.8-2.84-4.24-4.23a1.1,1.1,0,0,0-1.42-.27A3,3,0,0,0,282.66,285.56Zm81.75,30.8h0c0-.2,0-0.4,0-0.6a6.31,6.31,0,0,0-1-4,2.43,2.43,0,0,0-2.72-1,1.94,1.94,0,0,0-1.51,2q-0.11,2.75-.08,5.51a3.8,3.8,0,0,0,1.69,3,2.72,2.72,0,0,0,2.91.12c0.86-.39.86-1.22,0.83-2C364.54,318.39,364.47,317.37,364.41,316.36ZM307,272.86h0c0,0.82,0,1.64,0,2.46,0.06,1.19.1,2.4,0.26,3.58a1.54,1.54,0,0,0,2.11,1.42c2-.5,3-1.67,2.54-3.68q-0.82-3.38-1.79-6.71a13.45,13.45,0,0,0-1.07-2.34A0.89,0.89,0,0,0,308,267a1.89,1.89,0,0,0-.82.84,2.32,2.32,0,0,0-.2,1C307,270.23,307,271.55,307,272.86ZM253.35,394.43v0.13c1.17-.13,2.35-0.19,3.5-0.41a1.53,1.53,0,0,0,1.3-2.21c-0.19-.69-0.47-1.36-0.7-2-0.74-2.12-1.5-2.42-3.49-1.38-1.65.86-3.29,1.73-4.91,2.64a4.87,4.87,0,0,0-1.33,1.09,1.27,1.27,0,0,0,.53,2.11,5,5,0,0,0,1.81.27C251.15,394.63,252.25,394.51,253.35,394.43Zm70.55,9.71c0.3,0,.6,0,0.9,0a1.6,1.6,0,0,0,1.77-1.43,1.72,1.72,0,0,0-1.44-2.08,6.69,6.69,0,0,0-2.43-.13,47.12,47.12,0,0,0-6,1.4,22.66,22.66,0,0,0-3.94,2,1.25,1.25,0,0,0-.83,1.5,1.42,1.42,0,0,0,1.56.76,9.75,9.75,0,0,0,3.71-.53A23.12,23.12,0,0,1,323.9,404.14Zm-76.6-55.7v0.06h-1.44a1.74,1.74,0,0,0-.41.07,0.88,0.88,0,0,0-.47,1.53,4,4,0,0,0,1.16.71c1.46,0.69,2.94,1.35,4.41,2a24.92,24.92,0,0,0,2.28,1.07,15.94,15.94,0,0,0,2.94.74,1.3,1.3,0,0,0,1.54-1,8.37,8.37,0,0,0,.37-2,1.71,1.71,0,0,0-1.52-2c-0.7-.16-1.42-0.19-2.14-0.28ZM266,304.64h-0.84a1.31,1.31,0,0,0-1.39.62,1.42,1.42,0,0,0,.41,1.58c0.24,0.27.5,0.52,0.76,0.77,0.85,0.82,1.71,1.62,2.54,2.46,0.66,0.66,1.27,1.38,1.94,2a1.92,1.92,0,0,0,2.3.46,2.93,2.93,0,0,0,.48-5c-0.77-.61-1.59-1.14-2.36-1.74A5,5,0,0,0,266,304.64Zm-5.52,36.42a2.08,2.08,0,0,0-1.21-2c-1.93-1-3.87-2.09-5.83-3.09a13.55,13.55,0,0,0-2.08-.77,3.75,3.75,0,0,0-1.12-.17,1,1,0,0,0-1,1.4,3.36,3.36,0,0,0,.85,1.28c1.05,0.91,2.15,1.78,3.28,2.6s2,1.36,3.07,2a5.74,5.74,0,0,0,1.79.77C259.59,343.36,260.45,342.56,260.44,341.06Zm32.62,78c0,0.58.05,1.16,0.13,1.73a2,2,0,0,0,2.13,1.91,1.88,1.88,0,0,0,2.23-1.74,5,5,0,0,0,.09-0.59c0.16-1.73.33-3.46,0.46-5.2a8.37,8.37,0,0,0,0-1.62A1.69,1.69,0,0,0,295.9,412a2,2,0,0,0-1.67,1.46A17.29,17.29,0,0,0,293.06,419.1Zm-46.33-40.87a17.14,17.14,0,0,0,7.45-2,2.7,2.7,0,0,0,.76-0.57,3,3,0,0,0,.13-3.26c-0.43-.66-1.13-0.75-2.34-0.3l-0.11,0c-2.44,1.15-4.88,2.28-7.31,3.45a3.19,3.19,0,0,0-1.09.81,1.38,1.38,0,0,0-.3,1.06,1.23,1.23,0,0,0,.84.62A15.24,15.24,0,0,0,246.74,378.23Zm75.87-112.66a13.63,13.63,0,0,0-.25-1.93,1,1,0,0,0-1.79-.46,2.43,2.43,0,0,0-.58.82,12.25,12.25,0,0,0-.77,2.26c-0.37,2-.71,4-1,6a11.5,11.5,0,0,0,0,3,1.33,1.33,0,0,0,2.19.9,2.84,2.84,0,0,0,1.36-2.28C322.09,271.2,322.34,268.46,322.61,265.57Zm-29.3,12c0.32,1,.55,2,0.93,2.9,0.77,1.86,1.62,3.69,2.44,5.53a2.71,2.71,0,0,0,.49.88,2.33,2.33,0,0,0,1.08.66,2.84,2.84,0,0,0,2.83-1.42,2,2,0,0,0-.17-2.56c-1-1.32-2-2.63-3.11-3.87a33.78,33.78,0,0,0-2.78-2.81,1.36,1.36,0,0,0-1.13-.23A2.15,2.15,0,0,0,293.31,277.62ZM274.82,349.3a9.76,9.76,0,0,0-1.61,0,1.13,1.13,0,0,0-.8.55,1.16,1.16,0,0,0,.36.91,6.78,6.78,0,0,0,1.15.75l5.83,3.78c0.55,0.36,1.09.75,1.66,1.07a3.23,3.23,0,0,0,1.06.38,1.5,1.5,0,0,0,1.83-1.48,2.67,2.67,0,0,0-1.2-2.53c-1.13-.79-2.31-1.5-3.48-2.23A7.54,7.54,0,0,0,274.82,349.3Zm-25.12,16.16v0c1.22,0,2.44,0,3.66,0,2.23,0,2.84-.81,2.45-3V362.4c-0.27-1.39-.78-1.83-2.19-1.69-0.93.09-1.84,0.36-2.77,0.48a16.86,16.86,0,0,0-5.64,2.11,1.26,1.26,0,0,0-.85,1.48,1.28,1.28,0,0,0,1.46.67C247.11,365.47,248.41,365.46,249.71,365.46Zm120-73c-0.7.08-1.26,0.12-1.81,0.21a1.16,1.16,0,0,0-1,.87,1.22,1.22,0,0,0,.46,1.34,5.84,5.84,0,0,0,1.54.91c1.91,0.64,3.85,1.22,5.78,1.78a7.78,7.78,0,0,0,1.72.26,4,4,0,0,0,1.3-.13,1.78,1.78,0,0,0,.39-3.2,7.94,7.94,0,0,0-1.73-.65c-1.43-.37-2.87-0.7-4.32-1C371.25,292.64,370.43,292.55,369.75,292.45Zm-91.09,10.87a2.09,2.09,0,0,0,1.7-.75,2.51,2.51,0,0,0,.17-3.35,17.06,17.06,0,0,0-4.06-4.21,8.38,8.38,0,0,0-1-.6,1,1,0,0,0-1.28-.07,1.69,1.69,0,0,0-.34,1.19,14.33,14.33,0,0,0,2.58,6.63A2.58,2.58,0,0,0,278.66,303.32Zm93.51,0.83c0.77-.11,1.55-0.17,2.3-0.34a1.19,1.19,0,0,0,1-1.17,1.24,1.24,0,0,0-.76-1.25c-0.16-.08-0.33-0.15-0.49-0.21-1.19-.47-2.37-1-3.57-1.4a12.58,12.58,0,0,0-5.84-1,1.19,1.19,0,0,0-1.24.92,1.21,1.21,0,0,0,.81,1.27c1.44,0.78,2.89,1.54,4.32,2.33A6.77,6.77,0,0,0,372.18,304.15Zm0.51,11.46a30.61,30.61,0,0,0-3.15.35,1.15,1.15,0,0,0-.63,2,3.46,3.46,0,0,0,1.34,1,16.12,16.12,0,0,0,7.36,1,4.26,4.26,0,0,0,1.68-.57,1.44,1.44,0,0,0,.06-2.42,3.08,3.08,0,0,0-1.26-.53C376.19,316.06,374.27,315.82,372.68,315.6Zm38.7,13.67c-1.19.15-2.48,0.29-3.77,0.48a2.1,2.1,0,0,0-1.83,1.27,8.82,8.82,0,0,0-.54,2.43,1.26,1.26,0,0,0,1.58,1.47,13.15,13.15,0,0,0,5.68-2.09,2.81,2.81,0,0,0,1.26-2,1.17,1.17,0,0,0-1.08-1.44C412.28,329.3,411.88,329.3,411.38,329.27Zm-56.89-40.13a1.59,1.59,0,0,0-2.61-1.57,2.25,2.25,0,0,0-.92,1c-0.57,1.8-1.06,3.63-1.53,5.46a3,3,0,0,0,.06,1.13,1.7,1.7,0,0,0,1.24,1.6,1.74,1.74,0,0,0,2-.75,8.09,8.09,0,0,0,1.07-2.38C354.16,292.12,354.29,290.57,354.49,289.14Zm20.21,19-5.35.72a2.26,2.26,0,0,0-.62.2c-0.64.3-1.36,0.59-1.3,1.45s0.82,1.06,1.51,1.22a15.9,15.9,0,0,0,7.31,0,4.72,4.72,0,0,0,1.41-.63,1.39,1.39,0,0,0,.68-1.43,1.26,1.26,0,0,0-1-1.05C376.41,308.47,375.5,308.34,374.71,308.18Zm3.41-27.54a2.7,2.7,0,0,0-.81-1.82c-0.85-.93-1.67-1.88-2.56-2.77a15.13,15.13,0,0,0-1.79-1.49,2.9,2.9,0,0,0-2.05-.5,1.74,1.74,0,0,0-1.15,3,6.81,6.81,0,0,0,1,.79q2.51,1.73,5,3.44a3.2,3.2,0,0,0,.91.44A1,1,0,0,0,378.11,280.64Zm4.34,65.2a13,13,0,0,0,6.91-3.48,2,2,0,0,0,.37-0.61,1.31,1.31,0,0,0-1.11-1.92,5,5,0,0,0-1.55.07,17.32,17.32,0,0,0-5.12,2.28,2.47,2.47,0,0,0-1.2,2.4C380.8,345.45,381.22,345.84,382.45,345.84Zm-20.82-67.69A2.75,2.75,0,0,0,364,277c1.17-1.45,2.3-2.92,3.42-4.41a2.56,2.56,0,0,0,.45-1.09,1.08,1.08,0,0,0-1.37-1.3,3.82,3.82,0,0,0-1.22.6,12.8,12.8,0,0,0-1.71,1.31c-1,1-2.06,2.05-3,3.12a2.29,2.29,0,0,0-.46,1A1.43,1.43,0,0,0,361.63,278.15Zm-7.51,39.93,0.1,0c-0.28-1.55-.52-3.11-0.84-4.65a2.42,2.42,0,0,0-1.41-1.69,1.15,1.15,0,0,0-1.75,1,8.81,8.81,0,0,0,0,1.14c0,1,0,1.91,0,2.87a22.69,22.69,0,0,0,.36,3.19,1.52,1.52,0,0,0,1.77,1.19,1.64,1.64,0,0,0,1.6-1.44C354.08,319.12,354.08,318.59,354.13,318.08Zm56.76,25.66a7.39,7.39,0,0,0,5.1-2.67,2.18,2.18,0,0,0,.45-1.2,1.52,1.52,0,0,0-1.62-1.8,9.45,9.45,0,0,0-5.55,2.41,2,2,0,0,0-.34,2.35C409.24,343.6,409.94,343.71,410.89,343.74Zm-49.36-52.47h-0.06c0-.16,0-0.32,0-0.48a1.14,1.14,0,0,0-.86-1.16,1.18,1.18,0,0,0-1.32.6,5,5,0,0,0-.41.86c-0.47,1.19-1,2.36-1.38,3.57a14.15,14.15,0,0,0-.69,3,1.37,1.37,0,0,0,1.44,1.5,1.75,1.75,0,0,0,1.79-.87,6.78,6.78,0,0,0,.8-2C361.13,294.6,361.31,292.93,361.53,291.27Zm6.11-11.13c-1,0-1.68.21-2,.94a1.63,1.63,0,0,0,.49,1.85,3.5,3.5,0,0,0,.73.62c1.3,0.74,2.61,1.46,3.93,2.16a3.34,3.34,0,0,0,1,.28,1.16,1.16,0,0,0,1.28-1.87,9.16,9.16,0,0,0-1.52-1.58,26.71,26.71,0,0,0-2.6-1.81A8.65,8.65,0,0,0,367.64,280.14Zm10-12.19c1.52-.06,4.65-2.43,5.12-3.89a1.8,1.8,0,0,0-2.89-2c-1.07,1-2.11,2-3.13,3a1.94,1.94,0,0,0-.53,1.71A1.27,1.27,0,0,0,377.6,267.94Zm21.66-6.27a10.25,10.25,0,0,0-4.21,1.64,2,2,0,0,0-.31.28,2.12,2.12,0,0,0-.49,2.32,1.64,1.64,0,0,0,2,.65,10,10,0,0,0,4.43-2,1.74,1.74,0,0,0,.54-2C400.95,261.93,400.45,261.66,399.26,261.67ZM386.14,352l0,0.09c1.41-.27,2.82-0.51,4.22-0.83a4.94,4.94,0,0,0,1.56-.73,1.24,1.24,0,0,0,0-2.18,2.32,2.32,0,0,0-1.2-.49,7.18,7.18,0,0,0-2.33.33c-1.18.42-2.3,1-3.44,1.55a2.47,2.47,0,0,0-.69.47,0.91,0.91,0,0,0,.42,1.62A10.53,10.53,0,0,0,386.14,352Zm-0.57-73.33a1.38,1.38,0,0,0,1.51-1.58,3.18,3.18,0,0,0-1-1.88c-0.88-1-1.72-2-2.61-3a4,4,0,0,0-1.17-1,1,1,0,0,0-1.5,1.11,3.44,3.44,0,0,0,.37,1.13c0.43,0.86.87,1.71,1.37,2.53a16.17,16.17,0,0,0,1.33,1.91A2.19,2.19,0,0,0,385.56,278.66Zm-5.67,11.49a2,2,0,0,0,1.83-1.17c0.78-1.52,1.49-3.09,2.22-4.64A1.18,1.18,0,0,0,384,284a0.92,0.92,0,0,0-1.36-1.08,3.68,3.68,0,0,0-1.27.87c-0.91,1-1.78,2-2.61,3.12a3.22,3.22,0,0,0-.55,1.24A1.57,1.57,0,0,0,379.89,290.14Zm25.3,22.68c1.84,0,2.9-.81,2.9-2.22,0-1.63-1.2-3.13-2.51-3.15a3.06,3.06,0,0,0-3,3.09C402.55,312,403.53,312.82,405.19,312.82Zm2.39-59a2.84,2.84,0,0,0,0-.3,2.76,2.76,0,0,0-.12-0.46,13.75,13.75,0,0,0-3.73-4.84,1.05,1.05,0,0,0-1.33-.18,1.11,1.11,0,0,0-.37,1.24,1.79,1.79,0,0,0,.12.52c0.64,1.33,1.23,2.68,2,4a2.73,2.73,0,0,0,2,1.37A1.2,1.2,0,0,0,407.58,253.86Zm-80.31,105.4c-0.06,0-.22,0-0.38,0a2,2,0,0,0-.47.11,8.73,8.73,0,0,0-4.65,4.44,1,1,0,0,0,.1,1,1.2,1.2,0,0,0,1,0c1.62-.77,3.22-1.59,4.82-2.41a3.54,3.54,0,0,0,.6-0.39,1.69,1.69,0,0,0,.63-1.86A1.55,1.55,0,0,0,327.27,359.25Zm28.31-87a1.42,1.42,0,0,0,.67,1.54,1.22,1.22,0,0,0,1.46-.38c1.17-1.31,2.34-2.62,3.47-4a3,3,0,0,0,.74-2.16,0.8,0.8,0,0,0-1.11-.8,3.68,3.68,0,0,0-1,.54,21.92,21.92,0,0,0-3.82,4.18A3,3,0,0,0,355.58,272.27Zm17.77-9a3.83,3.83,0,0,0,1-.35c1.58-1.11,3.14-2.26,4.7-3.39l0.08-.08a1.3,1.3,0,0,0,.26-1.45,1.08,1.08,0,0,0-1.19-.72,3.44,3.44,0,0,0-1.31.49c-1.17.75-2.33,1.54-3.46,2.36a4.56,4.56,0,0,0-1.24,1.18A1.25,1.25,0,0,0,373.35,263.25Zm18.32,8.81a2,2,0,0,0-1-1.73c-1.22-.79-2.46-1.55-3.7-2.31a1.08,1.08,0,0,0-.61-0.2,1.62,1.62,0,0,0-1,.32,1.36,1.36,0,0,0,0,1,2.38,2.38,0,0,0,.59.89c1,1.07,2,2.13,3.07,3.19a1.5,1.5,0,0,0,1.72.5A1.83,1.83,0,0,0,391.67,272.06ZM405,297.83a2.07,2.07,0,0,0,2.34-2.2,2.62,2.62,0,0,0-2.59-2.85,2.4,2.4,0,0,0-2.41,2.57A2.48,2.48,0,0,0,405,297.83Zm-12.82-36.69a7.49,7.49,0,0,0,3.83-1.79,1.66,1.66,0,0,0,.61-2,1.46,1.46,0,0,0-1.87-.78,19.6,19.6,0,0,0-3.28,1.38,1.91,1.91,0,0,0-.93,1.71C390.45,260.63,390.94,261.13,392.13,261.14Zm-96.95,167a2.23,2.23,0,0,0-2.45,2.34,2.2,2.2,0,0,0,2.12,2.41,2.7,2.7,0,0,0,2.84-2.7C297.71,428.93,296.74,428.13,295.19,428.12ZM310.85,379a1.48,1.48,0,0,0-.82-1.24,1.57,1.57,0,0,0-1.76.1,10,10,0,0,0-3,3.61,1.1,1.1,0,0,0,.11,1,1.49,1.49,0,0,0,.92.23,0.94,0.94,0,0,0,.51-0.16c1.09-.63,2.18-1.26,3.24-1.92A1.7,1.7,0,0,0,310.85,379ZM413,280.55c-1.46,0-2.1.63-2.11,2.13a2,2,0,0,0,2.25,2.22,2,2,0,0,0,2.24-2.2C415.38,281.21,414.68,280.57,413,280.55Zm8.45-24.87a6.5,6.5,0,0,0-2.1-3.94c-0.32-.28-0.73-0.62-1.1-0.29a1.46,1.46,0,0,0-.26,1.06c0.08,1,.22,1.94.38,2.9a3.41,3.41,0,0,0,.43,1.22,1.58,1.58,0,0,0,1.83.53A1.34,1.34,0,0,0,421.44,255.69ZM272.3,418.88a2.19,2.19,0,0,0,2.34-2.06,1.81,1.81,0,0,0-1.89-1.81,2.22,2.22,0,0,0-2.18,2.24A1.56,1.56,0,0,0,272.3,418.88ZM417.71,265a1.79,1.79,0,0,0-1.88-2,1.69,1.69,0,0,0-1.83,1.65,2.17,2.17,0,0,0,2.1,2.06A1.59,1.59,0,0,0,417.71,265ZM299.86,437.6a1.21,1.21,0,0,0-1.08,2,14.82,14.82,0,0,0,1.94,2.19,1.05,1.05,0,0,0,.95.24,1.1,1.1,0,0,0,.44-0.92,13.66,13.66,0,0,0-.7-2.58A1.53,1.53,0,0,0,299.86,437.6ZM408.49,262.27a11.42,11.42,0,0,0,1.43-.35,1.21,1.21,0,0,0,.81-1.27,1.25,1.25,0,0,0-1-1.23,3.61,3.61,0,0,0-2.62.24,1.18,1.18,0,0,0-.69,1.17,1.2,1.2,0,0,0,.77,1.18A8.22,8.22,0,0,0,408.49,262.27ZM286.72,441.89a1.26,1.26,0,0,0,.58,1.24,0.77,0.77,0,0,0,1.06-.42,26.6,26.6,0,0,0,1.09-3.87,0.82,0.82,0,0,0-1.37-.69,2.65,2.65,0,0,0-.86,1.23A22.31,22.31,0,0,0,286.72,441.89Zm-23.92-21.63c0.41,0,.85,0,1.28-0.12a1,1,0,0,0,1.06-1,1.07,1.07,0,0,0-1.06-1,5.75,5.75,0,0,0-3.44.54,1,1,0,0,0-.5.76,1,1,0,0,0,.72.56A17.72,17.72,0,0,0,262.79,420.27Zm11.75,8.47,0.08,0a20.52,20.52,0,0,0-.68-2.45,1.15,1.15,0,0,0-.94-0.52,1.06,1.06,0,0,0-.72.72,5.16,5.16,0,0,0,.85,3.64,0.66,0.66,0,0,0,1.23-.23A6.89,6.89,0,0,0,274.54,428.74Zm0-83.36a1.47,1.47,0,0,0-1.53-1.67,1.39,1.39,0,0,0-1.5,1.49,1.72,1.72,0,0,0,1.59,1.89A1.5,1.5,0,0,0,274.58,345.38Zm20.9,95.68h0.06a11.18,11.18,0,0,0-.29-1.89,1.11,1.11,0,0,0-.8-0.63,1,1,0,0,0-.74.61,4.36,4.36,0,0,0,.64,3.49,0.76,0.76,0,0,0,.66.27,0.78,0.78,0,0,0,.46-0.53A8.06,8.06,0,0,0,295.48,441.06ZM269,423.19a0.88,0.88,0,0,0-1-1,2.54,2.54,0,0,0-2.1,2.27,0.74,0.74,0,0,0,.73.79A2.57,2.57,0,0,0,269,423.19Zm122.86-88.86a2.26,2.26,0,0,0,.76-0.08,1.67,1.67,0,0,0,.75-0.65,0.67,0.67,0,0,0-.58-0.83,5.28,5.28,0,0,0-1.58-.19,0.9,0.9,0,0,0-.62.59,1,1,0,0,0,.33.81A3.14,3.14,0,0,0,391.82,334.33Z" transform="translate(-238.76 -238.88)"/><path class="cls-1" d="M424.28,316.27a7.54,7.54,0,0,1-4.26-1.49,5.34,5.34,0,0,1-1.2-6.49,7.28,7.28,0,0,1,5.4-3.58,2.83,2.83,0,0,1,1.07.07,6.39,6.39,0,0,1,4.61,7.57C429.23,314.86,427.28,316.28,424.28,316.27Zm0.34-3.34a2,2,0,0,0,2.1-2.09,2,2,0,0,0-2.06-2.33,2.21,2.21,0,0,0-2.43,2.23A2.13,2.13,0,0,0,424.63,312.92Z" transform="translate(-238.76 -238.88)"/></g></svg>